<?xml version="1.0" standalone="no"?>
<!DOCTYPE svg PUBLIC "-//W3C//DTD SVG 20010904//EN"
 "http://www.w3.org/TR/2001/REC-SVG-20010904/DTD/svg10.dtd">
<svg version="1.0" xmlns="http://www.w3.org/2000/svg"
 width="6680.000000pt" height="6680.000000pt" viewBox="0 0 6680.000000 6680.000000"
 preserveAspectRatio="xMidYMid meet">
<metadata>
Created by potrace 1.11, written by Peter Selinger 2001-2013
</metadata>
<g transform="translate(0.000000,6680.000000) scale(0.100000,-0.100000)"
fill="#000000" stroke="none">
<path d="M32891 50602 c-11 -26 -19 -30 -85 -40 -98 -15 -174 -45 -223 -87
-24 -20 -59 -39 -88 -45 -98 -22 -136 -57 -203 -191 -35 -68 -56 -98 -79 -112
-32 -18 -33 -18 -98 4 -108 36 -200 19 -286 -55 -20 -17 -55 -46 -77 -64 -29
-22 -43 -43 -48 -67 -7 -37 -26 -47 -113 -59 -24 -4 -57 -14 -74 -23 -53 -27
-146 -129 -184 -200 -34 -66 -35 -71 -29 -145 10 -121 -22 -170 -139 -213 -68
-25 -131 -92 -182 -195 l-43 -85 0 -114 0 -113 -68 -73 c-132 -142 -166 -251
-122 -396 38 -127 51 -144 179 -247 22 -18 41 -37 41 -41 0 -4 -29 -20 -65
-35 -46 -20 -70 -37 -83 -59 -12 -20 -33 -37 -58 -46 -59 -20 -148 -77 -243
-154 -48 -38 -103 -77 -123 -88 -21 -10 -54 -36 -75 -58 -21 -21 -54 -46 -74
-55 -20 -10 -51 -35 -68 -56 -32 -41 -299 -230 -485 -345 -108 -66 -277 -153
-409 -209 -40 -17 -90 -49 -120 -76 -29 -26 -69 -55 -88 -63 -20 -8 -46 -28
-58 -45 -12 -17 -45 -48 -74 -68 -115 -83 -211 -168 -403 -354 -111 -107 -225
-215 -254 -240 -29 -24 -71 -67 -93 -95 -84 -106 -239 -218 -370 -267 -69 -26
-97 -31 -177 -31 -121 -1 -183 17 -325 94 -149 80 -232 144 -299 227 -63 80
-106 103 -156 82 -36 -15 -42 -32 -34 -87 4 -28 2 -48 -6 -58 -21 -25 -30 -6
-30 61 0 56 -3 69 -22 85 -13 10 -28 18 -34 19 -6 0 -54 40 -107 90 -54 50
-108 92 -124 96 -69 15 -78 20 -81 50 -2 15 3 56 11 89 27 103 28 113 14 154
-8 22 -30 61 -49 88 -19 26 -63 108 -98 181 -45 93 -68 132 -80 132 -10 0 -24
7 -31 17 -27 31 -129 59 -129 34 0 -5 -22 -11 -50 -15 -29 -4 -61 -16 -77 -30
-29 -24 -45 -33 -151 -85 -73 -36 -75 -38 -148 -108 -30 -30 -54 -61 -54 -73
0 -32 97 -221 133 -260 46 -48 87 -112 87 -134 0 -63 63 -119 152 -132 47 -7
108 -34 126 -56 23 -28 -24 -58 -93 -58 -49 0 -115 -22 -115 -39 0 -6 -10 -11
-22 -11 -47 -1 -111 -42 -203 -130 -53 -50 -117 -101 -143 -115 -26 -13 -80
-40 -120 -60 -85 -43 -107 -71 -107 -135 0 -36 -6 -54 -27 -79 -29 -34 -36
-69 -17 -88 9 -9 8 -28 -3 -75 -8 -35 -13 -86 -11 -115 5 -48 7 -52 35 -58 41
-10 105 -69 133 -126 13 -26 63 -106 110 -178 101 -154 165 -282 171 -343 9
-77 13 -88 35 -88 12 0 34 11 51 25 22 18 41 25 74 25 34 0 44 4 44 16 0 17
38 53 57 54 34 1 131 49 171 85 26 23 121 81 212 130 91 48 222 125 291 170
70 46 226 133 348 195 122 62 228 119 237 127 12 12 12 18 2 31 -25 29 53 4
110 -36 88 -62 118 -77 192 -96 111 -29 144 -18 358 121 108 71 199 122 234
133 31 9 69 27 85 38 51 36 143 80 212 101 37 11 84 32 105 46 20 14 78 41
127 60 137 53 249 111 331 173 40 30 96 63 124 72 71 25 105 44 144 80 18 17
78 54 134 82 84 43 115 65 181 133 56 58 97 89 137 108 31 14 83 43 115 65 92
62 177 101 277 126 114 29 245 83 334 137 37 23 88 49 114 60 137 54 336 172
472 280 85 68 150 49 176 -51 6 -25 39 -133 71 -240 33 -107 67 -236 74 -286
8 -51 25 -116 39 -145 14 -30 28 -70 31 -90 3 -21 17 -54 31 -75 16 -23 39
-88 59 -169 35 -137 69 -234 110 -315 14 -27 25 -60 25 -73 0 -14 21 -69 46
-123 25 -55 61 -137 80 -183 l34 -84 -43 -55 c-23 -31 -67 -78 -97 -106 -143
-134 -281 -290 -325 -368 -16 -30 -54 -82 -83 -117 -29 -34 -66 -89 -82 -121
-16 -32 -34 -61 -40 -65 -5 -3 -19 -36 -30 -73 -11 -36 -32 -89 -45 -117 -14
-27 -28 -72 -31 -100 -4 -27 -12 -60 -20 -71 -49 -79 -68 -223 -39 -304 16
-46 21 -205 6 -214 -5 -3 -13 -25 -19 -49 -18 -68 -2 -104 79 -182 69 -67 72
-71 84 -140 7 -38 18 -83 24 -100 6 -16 18 -88 26 -160 27 -223 89 -466 195
-755 28 -77 50 -155 50 -177 0 -21 9 -56 19 -76 11 -21 25 -60 31 -87 7 -27
20 -60 29 -72 15 -20 41 -109 41 -139 0 -18 -142 64 -195 113 -64 58 -92 70
-137 57 -56 -16 -169 -11 -215 10 -50 23 -112 85 -149 149 -55 96 -136 165
-233 197 -46 15 -73 17 -176 11 -152 -8 -198 4 -362 101 -65 38 -136 76 -158
84 -33 13 -45 26 -67 70 -15 30 -29 79 -32 109 -16 157 -38 204 -102 216 -43
8 -57 3 -153 -61 -46 -30 -89 -55 -96 -55 -18 0 -75 -67 -93 -109 -10 -25 -14
-66 -13 -132 1 -89 -2 -101 -30 -158 -24 -47 -36 -61 -53 -61 -37 0 -120 -48
-144 -83 -12 -19 -27 -63 -33 -98 -17 -96 -45 -117 -109 -84 -38 20 -50 65
-47 180 1 61 -2 98 -12 114 l-13 23 -21 -20 c-13 -14 -23 -42 -29 -83 -10 -73
-22 -91 -57 -87 l-26 3 -5 125 c-5 114 -17 170 -38 170 -4 0 -19 -23 -34 -50
-15 -27 -39 -57 -53 -66 -24 -16 -29 -16 -77 0 -63 20 -89 20 -136 0 -50 -20
-94 -64 -153 -151 -27 -40 -63 -80 -79 -88 -55 -28 -77 -20 -157 58 -89 87
-93 93 -103 173 -8 63 -59 168 -87 178 -7 3 -28 -7 -46 -23 -46 -40 -70 -51
-113 -51 -34 0 -46 9 -145 109 -121 121 -152 139 -217 121 -46 -12 -92 -61
-264 -280 -58 -74 -148 -176 -199 -226 -85 -82 -102 -94 -179 -123 -104 -39
-165 -74 -186 -106 -21 -32 -38 -32 -61 1 -65 93 -84 105 -205 135 -45 11 -94
27 -109 34 -25 13 -30 12 -70 -15 -75 -49 -191 -163 -379 -370 -173 -192 -211
-251 -99 -155 58 49 95 57 122 27 38 -42 15 -111 -69 -205 -24 -26 -34 -47
-34 -70 0 -29 6 -36 54 -65 59 -35 106 -84 106 -110 0 -10 8 -22 18 -29 10 -6
29 -38 41 -72 23 -63 42 -81 85 -81 64 0 158 -69 172 -127 7 -27 -10 -95 -32
-130 -21 -33 -29 -100 -14 -118 11 -13 8 -15 -18 -15 -16 0 -35 -7 -43 -16
-22 -27 -69 -46 -99 -39 -16 3 -53 24 -83 46 -31 21 -58 39 -61 39 -11 0 -6
-51 9 -88 9 -20 29 -50 45 -65 49 -48 41 -90 -33 -176 l-28 -33 30 -19 c17
-10 31 -22 31 -25 0 -4 -13 -22 -30 -40 -16 -19 -32 -45 -36 -58 -8 -34 23
-99 84 -175 57 -70 68 -107 30 -96 -13 4 -47 18 -77 31 -62 28 -100 30 -142 9
l-29 -16 22 -29 22 -30 -28 -66 c-15 -37 -24 -74 -21 -85 5 -15 1 -19 -18 -19
-19 0 -26 8 -35 39 -7 21 -19 45 -28 52 -22 18 -82 15 -124 -6 l-34 -17 -53
55 c-47 49 -53 59 -43 77 6 12 27 28 46 37 42 21 47 57 9 75 -37 17 -107 -14
-177 -78 -81 -75 -122 -71 -206 20 -41 45 -45 61 -19 93 12 16 117 73 134 73
17 0 17 22 -1 65 -17 40 -46 46 -98 19 -24 -12 -36 -13 -54 -5 -28 12 -29 22
-9 61 13 25 22 30 53 30 44 0 76 20 97 60 30 58 9 100 -49 100 -20 0 -48 11
-72 28 -21 15 -54 34 -71 41 -18 7 -42 22 -55 32 -36 32 -62 33 -127 4 -47
-21 -70 -26 -100 -21 -28 4 -42 2 -51 -9 -18 -22 -96 -48 -123 -41 -49 12 -79
134 -38 156 11 5 39 10 63 10 73 0 77 14 14 45 -43 21 -65 26 -93 22 -44 -8
-65 3 -126 62 -60 58 -82 121 -66 187 6 25 15 47 20 50 5 3 9 22 9 43 0 48
-24 71 -82 78 -24 3 -67 20 -98 40 -173 109 -289 163 -350 163 -37 0 -55 24
-74 95 -14 53 -43 94 -68 95 -5 0 -8 19 -8 43 -1 23 -7 60 -15 82 -8 22 -15
47 -15 56 0 11 -51 36 -168 82 -92 37 -175 67 -185 67 -13 0 -389 181 -404
194 -2 1 2 18 8 37 6 19 14 85 18 146 8 128 20 149 98 184 42 20 65 17 96 -9
24 -21 21 -45 -9 -81 -32 -38 -42 -92 -21 -110 27 -22 122 2 168 44 22 19 48
35 59 35 18 0 20 -7 20 -60 0 -67 15 -84 73 -78 29 3 32 7 43 55 6 28 22 66
34 83 12 17 21 33 19 34 -2 2 -33 11 -68 20 -38 10 -83 31 -111 51 -107 79
-220 110 -367 103 -75 -4 -112 -11 -158 -30 -33 -14 -109 -41 -169 -59 -61
-19 -136 -49 -168 -68 -55 -33 -61 -40 -139 -182 l-82 -147 -114 -33 c-63 -18
-136 -46 -163 -63 -27 -17 -88 -55 -134 -84 -73 -45 -87 -58 -96 -90 -29 -107
3 -144 155 -177 222 -48 427 -137 695 -300 120 -74 162 -106 245 -190 55 -55
121 -112 147 -125 34 -18 49 -32 53 -52 9 -37 55 -85 91 -94 16 -3 51 -27 77
-53 49 -46 177 -194 177 -204 0 -3 -33 -20 -72 -39 -95 -43 -196 -120 -334
-250 -62 -59 -125 -113 -142 -122 -41 -21 -85 -20 -130 3 -75 38 -146 35 -201
-7 l-23 -19 21 -49 c27 -60 51 -87 119 -131 43 -28 52 -39 52 -62 0 -41 -20
-52 -110 -62 -158 -18 -177 -40 -141 -169 27 -99 27 -134 0 -159 -26 -24 -99
-37 -142 -25 -51 15 -67 59 -67 184 l0 105 -34 33 c-34 33 -60 43 -254 102
-94 28 -105 35 -132 71 -16 22 -43 82 -60 133 -17 51 -44 115 -61 141 -29 45
-32 47 -67 42 -20 -4 -60 -23 -89 -44 -119 -85 -117 -84 -233 -77 -58 3 -128
12 -157 21 -90 27 -149 106 -160 219 -3 30 -9 54 -13 54 -12 0 -37 -60 -46
-105 -9 -50 -31 -95 -47 -95 -6 0 -39 16 -72 36 -121 74 -169 54 -228 -94 -58
-146 -72 -225 -71 -407 0 -168 15 -277 59 -450 13 -49 29 -128 36 -174 12 -78
12 -84 -6 -97 -55 -40 -133 4 -155 87 -19 76 -30 95 -73 128 -36 27 -167 144
-229 204 -25 24 -23 37 18 112 45 82 42 109 -19 135 -23 10 -62 21 -86 25 -54
9 -105 53 -94 82 6 17 164 198 206 236 15 14 38 17 116 17 88 0 100 2 119 23
52 55 51 111 -4 182 -53 69 -181 286 -225 379 -24 52 -44 114 -51 159 l-12 75
-61 17 c-142 39 -224 110 -240 206 -4 22 -13 43 -21 46 -34 13 -285 -94 -310
-132 -14 -22 -13 -27 19 -88 27 -51 35 -80 41 -144 14 -169 56 -271 156 -377
102 -108 116 -145 81 -215 -53 -104 -185 -172 -334 -172 -72 0 -88 3 -151 35
-48 23 -98 61 -155 115 -98 93 -123 101 -181 53 -68 -56 -71 -57 -300 -63
-150 -4 -223 -9 -242 -19 -27 -12 -28 -17 -28 -82 0 -63 3 -72 28 -98 18 -18
48 -32 83 -40 49 -11 60 -10 91 4 20 10 50 35 67 57 18 21 40 39 50 39 22 0
97 -55 170 -124 55 -52 100 -132 101 -176 1 -14 6 -35 13 -47 15 -27 146 -163
157 -163 5 0 37 13 72 30 71 34 105 37 148 15 28 -14 30 -20 30 -70 0 -75 -13
-103 -78 -161 l-56 -51 -241 80 c-167 55 -245 86 -257 101 -10 11 -33 70 -52
129 -41 125 -49 142 -84 180 -39 41 -65 35 -135 -32 -73 -69 -131 -100 -252
-135 -100 -29 -70 -4 -417 -342 -122 -118 -199 -201 -204 -218 -14 -56 3 -81
113 -173 49 -41 50 -43 56 -110 16 -171 80 -273 155 -247 22 8 30 20 43 69 9
33 28 100 43 149 30 100 61 263 72 376 l7 74 17 -84 c10 -47 32 -134 49 -195
58 -203 62 -279 20 -418 -25 -80 -22 -106 22 -237 53 -161 44 -170 -180 -170
l-153 0 -96 78 c-53 42 -126 104 -162 138 -36 33 -76 68 -90 77 -39 27 -99 22
-153 -13 -194 -123 -297 -128 -502 -26 -133 67 -183 80 -278 74 -88 -7 -167
-36 -254 -94 -59 -39 -72 -44 -123 -44 -32 0 -75 -7 -95 -16 -56 -23 -94 -12
-163 50 -78 69 -133 90 -238 91 -74 0 -85 -3 -108 -24 -59 -55 -11 -131 83
-131 87 0 191 -60 191 -110 0 -32 -16 -55 -122 -170 -64 -69 -78 -90 -78 -117
0 -27 -7 -37 -45 -63 -80 -55 -94 -99 -51 -163 14 -20 33 -56 44 -80 12 -26
32 -52 51 -63 29 -17 31 -22 31 -74 0 -30 7 -77 15 -104 21 -69 19 -101 -9
-132 -22 -27 -28 -28 -148 -35 -168 -9 -216 -25 -293 -103 l-60 -60 -158 -16
-157 -16 -27 28 c-37 39 -119 78 -163 78 -20 0 -64 -9 -98 -21 -83 -28 -105
-19 -167 72 -26 38 -82 99 -124 135 l-76 66 -75 -6 c-158 -12 -323 -71 -394
-142 -46 -46 -85 -126 -94 -192 -7 -44 -9 -47 -42 -53 -19 -3 -66 -22 -105
-42 -101 -53 -141 -51 -204 8 -27 26 -59 69 -72 98 -22 47 -24 68 -26 212 -1
88 -2 172 -2 186 -1 25 -3 27 -73 31 -56 4 -96 15 -168 46 -116 50 -221 72
-337 72 -151 0 -246 -20 -593 -126 -103 -31 -159 -29 -215 9 -36 25 -40 25
-47 10 -3 -10 -7 -32 -7 -49 -2 -59 -41 -189 -72 -234 -17 -25 -47 -56 -67
-70 -20 -14 -56 -46 -81 -72 -45 -46 -93 -73 -116 -64 -9 3 -9 17 -1 55 7 38
7 73 -4 139 -7 48 -16 116 -19 152 -7 78 -53 179 -104 228 -34 33 -35 33 -66
18 -59 -31 -60 -39 -51 -387 6 -238 12 -328 24 -372 28 -100 19 -127 -41 -127
-39 0 -57 23 -73 94 -38 170 -150 210 -350 125 -81 -34 -104 -36 -148 -9 -65
40 -72 28 -80 -117 l-5 -102 -28 36 c-47 58 -59 118 -59 284 0 171 -4 200 -36
234 -19 20 -32 25 -74 25 -43 0 -52 -3 -59 -22 -10 -25 -45 -60 -76 -76 -11
-5 -74 -24 -140 -42 -221 -58 -300 -88 -392 -151 -23 -16 -50 -29 -60 -29 -10
0 -45 14 -78 31 l-61 32 -58 -18 c-159 -50 -317 -219 -362 -389 -8 -28 -14
-96 -14 -151 0 -55 -4 -115 -10 -134 -12 -42 -51 -101 -67 -101 -7 0 -22 22
-34 49 -24 58 -50 84 -103 106 -21 9 -53 31 -70 49 -17 18 -56 42 -87 54 -31
11 -73 32 -94 46 -44 30 -35 29 -197 30 -124 1 -128 2 -154 28 -24 24 -28 37
-35 127 -9 117 -36 180 -104 238 -127 109 -311 137 -451 68 -92 -45 -138 -102
-265 -328 -53 -96 -115 -162 -194 -207 -120 -69 -210 -191 -246 -337 -12 -51
-13 -52 -73 -74 -93 -33 -243 -111 -326 -170 -133 -93 -262 -237 -290 -324
-19 -59 -55 -101 -113 -130 -115 -57 -280 -14 -518 135 -46 29 -114 67 -150
85 l-67 32 -59 -56 c-36 -34 -81 -93 -116 -152 -63 -107 -171 -257 -266 -368
-58 -66 -66 -82 -93 -173 -43 -150 -51 -162 -175 -256 -100 -76 -127 -108
-119 -142 47 -203 26 -274 -144 -501 -185 -250 -317 -491 -529 -974 -68 -154
-145 -322 -173 -374 -43 -82 -92 -202 -177 -436 -38 -104 -83 -153 -188 -205
-153 -75 -198 -134 -213 -279 -14 -133 -51 -219 -135 -311 -44 -49 -112 -174
-140 -258 -22 -68 -67 -102 -179 -136 -44 -14 -90 -31 -100 -39 -19 -14 -19
-15 4 -78 15 -42 23 -88 24 -134 1 -91 -21 -128 -101 -170 -68 -36 -69 -42
-33 -170 19 -68 23 -109 25 -277 3 -254 22 -331 109 -457 76 -111 72 -173 -15
-267 -65 -70 -68 -80 -44 -171 11 -41 15 -110 15 -238 0 -210 1 -213 89 -252
56 -25 101 -58 101 -75 0 -5 -13 -20 -29 -33 -44 -38 -110 -178 -122 -260 -11
-78 -9 -98 32 -315 16 -85 49 -270 73 -411 25 -141 52 -279 61 -306 15 -47 15
-56 -4 -157 -12 -59 -21 -127 -21 -152 0 -96 50 -147 162 -165 146 -23 167
-30 188 -56 11 -14 20 -40 20 -58 0 -29 -4 -33 -41 -44 -48 -14 -121 -79 -139
-121 -7 -17 -16 -30 -20 -30 -11 0 -28 -48 -35 -103 -19 -142 -102 -346 -180
-442 -25 -30 -45 -64 -45 -76 0 -11 -11 -65 -25 -120 -49 -194 -43 -272 32
-379 71 -101 163 -154 330 -189 56 -12 92 -26 115 -45 18 -15 54 -41 80 -56
26 -16 55 -41 65 -56 35 -54 14 -144 -52 -222 -29 -34 -31 -61 -10 -101 19
-38 61 -51 142 -44 70 5 134 -6 167 -30 23 -17 16 -58 -22 -117 -21 -32 -46
-51 -115 -87 -99 -51 -179 -118 -207 -174 -42 -82 -15 -199 65 -288 l37 -41
87 1 c94 2 137 -12 165 -53 23 -32 20 -62 -9 -96 -34 -40 -57 -49 -417 -147
-172 -48 -346 -97 -386 -111 -177 -59 -307 -154 -358 -261 -50 -107 -41 -291
18 -359 43 -49 120 -82 216 -94 45 -6 118 -14 161 -19 94 -12 163 -42 194 -85
17 -25 22 -45 22 -97 0 -62 -4 -75 -67 -196 -101 -198 -120 -291 -78 -378 25
-51 48 -73 125 -119 86 -53 111 -58 312 -65 223 -7 224 -8 268 -132 17 -46 45
-105 63 -130 42 -62 180 -189 212 -195 99 -18 116 -26 155 -67 85 -90 243
-220 305 -252 86 -43 146 -92 306 -246 201 -193 279 -226 669 -286 160 -24
209 -27 438 -28 280 0 277 0 277 -57 0 -32 -40 -68 -99 -88 -53 -17 -126 -80
-151 -131 -26 -51 -27 -158 -1 -214 36 -80 90 -104 232 -105 134 0 240 -34
302 -95 34 -35 35 -70 2 -135 -55 -108 -23 -175 130 -277 137 -91 239 -129
408 -148 143 -17 192 -40 225 -107 12 -24 24 -56 27 -71 10 -50 44 -73 146
-97 222 -52 316 -59 484 -39 98 12 146 29 173 63 9 12 31 27 47 33 17 6 74 40
128 76 113 76 282 164 382 199 161 57 311 62 447 13 40 -15 91 -31 113 -36 71
-18 128 -56 149 -100 27 -59 75 -85 207 -114 63 -13 146 -32 184 -41 41 -10
114 -17 175 -18 135 0 193 19 360 120 174 104 458 245 571 282 260 87 476 93
751 23 194 -50 255 -49 340 3 23 14 50 30 58 35 8 5 62 24 120 41 58 18 133
47 167 66 35 19 91 50 126 68 139 77 330 137 731 230 388 91 490 93 696 15 58
-22 128 -43 156 -46 47 -5 53 -3 88 28 21 18 68 74 106 125 130 175 197 201
438 165 185 -27 294 23 356 164 26 58 53 72 95 52 37 -18 51 -53 51 -132 0
-60 5 -77 31 -118 35 -56 50 -64 271 -135 163 -53 321 -91 483 -117 55 -9 110
-23 123 -31 26 -17 28 -54 7 -133 -27 -103 -37 -196 -25 -240 15 -56 58 -83
200 -127 63 -20 134 -42 158 -50 23 -8 77 -14 120 -14 89 0 131 -10 181 -43
29 -20 63 -27 177 -41 227 -26 342 -66 438 -152 61 -56 96 -65 161 -46 92 28
329 8 442 -37 29 -11 101 -30 160 -41 179 -34 203 -41 234 -67 34 -29 36 -51
14 -166 -42 -220 5 -286 223 -317 72 -10 76 -12 168 -88 l94 -77 84 -255 c46
-140 87 -274 90 -297 14 -96 81 -208 221 -363 41 -47 96 -115 121 -152 25 -37
53 -70 63 -73 25 -8 89 24 97 47 3 10 17 24 32 32 45 23 101 84 111 121 5 20
6 48 0 67 -28 107 -31 128 -25 153 12 46 49 75 99 75 77 0 87 -25 96 -222 5
-127 9 -149 26 -168 31 -35 105 -67 225 -100 114 -31 196 -66 219 -94 8 -9 27
-16 43 -16 16 0 42 -7 57 -15 16 -8 47 -17 69 -21 55 -9 100 -38 108 -70 4
-15 -3 -63 -17 -117 -46 -183 -22 -315 76 -413 43 -43 65 -56 121 -73 66 -20
78 -21 294 -10 124 6 266 13 315 16 56 3 144 -2 234 -12 192 -24 359 -16 491
21 114 32 240 36 309 10 52 -19 130 -21 155 -3 10 7 30 35 44 62 29 55 97 107
160 125 20 5 85 10 144 10 l107 0 63 56 c299 267 641 273 912 16 48 -46 105
-91 125 -99 20 -9 51 -28 68 -44 64 -56 104 -61 488 -66 704 -10 1081 26 1394
131 198 67 340 144 521 282 63 48 144 110 180 138 165 126 227 155 529 242
274 79 468 113 811 139 357 28 769 81 1160 151 412 73 479 84 605 94 170 13
292 1 504 -50 182 -43 292 -62 499 -87 114 -13 324 -17 1237 -23 733 -5 1132
-12 1195 -19 115 -14 208 -9 490 30 323 44 471 53 619 39 70 -6 144 -19 171
-30 93 -36 182 -43 682 -47 420 -4 495 -3 541 11 65 19 129 64 159 111 18 27
28 34 43 30 187 -54 210 -58 360 -59 92 -1 202 6 285 16 241 32 620 21 943
-27 56 -8 192 -31 302 -51 254 -45 354 -45 455 2 57 26 70 29 110 21 25 -5
108 -9 185 -9 164 -1 288 18 444 68 136 43 182 43 396 -1 208 -44 327 -56 420
-44 39 5 153 13 254 18 184 9 184 9 253 44 l69 36 72 -14 c173 -33 362 -47
732 -55 419 -9 471 -16 589 -79 148 -79 261 -33 365 147 32 56 51 77 77 88 50
21 68 18 116 -21 78 -63 131 -95 160 -95 47 0 100 34 170 108 121 128 176 280
166 455 l-5 79 33 14 c64 27 90 21 225 -52 15 -8 69 -18 122 -23 147 -14 288
-83 399 -195 48 -49 67 -86 93 -179 20 -73 68 -128 138 -156 28 -12 73 -33 98
-46 58 -31 115 -32 195 -5 143 49 345 49 524 0 148 -41 250 -60 366 -69 68 -5
160 -20 214 -35 242 -66 265 -69 520 -62 129 3 341 14 470 26 282 24 652 42
712 34 29 -4 63 1 107 15 44 15 90 21 148 21 50 0 97 6 118 15 31 12 55 12
198 -2 210 -21 731 -24 867 -5 52 8 157 27 233 43 163 34 216 36 317 8 109
-30 294 -36 510 -15 96 10 222 18 280 20 90 2 113 6 160 29 67 32 117 34 238
8 126 -27 285 -44 339 -36 59 9 129 44 167 84 33 35 79 51 144 51 49 0 96 21
106 46 8 22 3 26 -58 49 -150 55 -175 186 -60 314 58 65 89 74 191 56 43 -8
117 -14 164 -15 l86 0 5 -97 c8 -138 33 -201 112 -279 84 -83 149 -105 317
-107 114 -2 122 -3 140 -26 12 -15 19 -39 19 -67 0 -36 3 -44 18 -44 11 0 27
-9 37 -20 30 -33 73 -39 129 -17 58 21 159 24 262 6 41 -7 104 -9 159 -5 116
8 184 -5 305 -57 81 -36 105 -42 165 -42 84 0 150 28 234 98 49 41 61 46 135
57 106 15 220 1 374 -47 225 -69 252 -74 342 -71 68 3 97 9 145 32 42 20 82
30 131 33 64 5 75 3 110 -20 47 -32 132 -51 182 -42 20 3 72 17 114 31 118 39
158 95 208 300 19 77 34 121 45 127 10 5 42 31 71 58 57 51 71 56 107 38 102
-53 125 -156 52 -238 -55 -61 -60 -79 -34 -107 12 -13 33 -24 46 -24 47 0 179
32 208 50 78 50 152 81 290 125 199 62 290 110 380 200 39 38 87 91 108 117
29 37 57 56 132 92 152 73 235 168 251 290 l6 44 134 63 c97 45 146 74 179
107 25 24 45 48 45 52 0 13 114 81 232 139 126 62 192 74 263 46 39 -14 50
-25 74 -73 15 -32 38 -94 50 -140 46 -171 70 -212 125 -212 24 0 43 13 92 63
77 80 79 88 99 420 l15 249 43 86 c58 120 68 124 188 87 157 -49 321 -40 489
29 113 45 387 198 530 296 385 262 494 333 600 392 99 55 119 71 145 112 27
45 30 56 35 180 l6 131 66 165 c98 243 157 456 187 672 9 66 17 87 55 142 24
35 75 124 112 198 51 99 84 149 129 196 58 61 63 64 155 89 85 23 114 26 275
27 171 1 182 2 218 25 45 27 93 89 102 131 8 35 29 54 77 69 20 7 69 35 110
64 40 29 85 60 101 70 45 29 36 55 -46 119 -103 81 -197 175 -213 214 -19 44
-17 71 5 121 30 64 55 75 191 85 154 10 251 40 353 110 211 146 261 185 336
263 87 90 165 203 226 325 21 41 57 98 80 127 55 67 70 111 55 157 -6 18 -19
41 -30 51 -11 10 -24 32 -30 51 -15 44 -69 90 -122 105 -58 15 -71 27 -63 58
14 55 29 61 149 61 348 1 462 74 483 308 5 59 4 65 -22 92 -21 22 -46 33 -104
45 -42 10 -114 31 -161 47 -105 37 -374 163 -415 194 -53 40 -137 72 -245 94
-127 25 -150 42 -150 109 0 40 5 49 48 91 54 52 90 65 217 79 265 31 442 136
540 321 69 133 55 268 -35 312 -45 23 -192 24 -395 3 -173 -19 -174 -18 -195
73 -7 31 -15 63 -17 69 -3 7 26 46 64 85 38 40 93 102 122 138 63 77 83 95
136 120 55 27 121 25 187 -4 80 -36 118 -40 164 -21 48 20 64 34 130 116 59
74 149 140 228 166 44 15 98 17 411 18 313 1 368 3 420 18 122 37 211 72 233
94 22 22 22 24 7 60 -9 20 -33 60 -53 88 -21 27 -53 77 -71 110 -112 200 -231
337 -343 395 -63 33 -65 35 -56 61 19 54 17 54 366 59 l324 5 37 41 c20 22 53
54 75 69 21 16 90 93 153 172 119 150 180 206 273 253 123 62 229 68 391 22
272 -79 399 -90 501 -44 83 36 168 130 204 223 27 71 134 173 229 218 148 71
173 133 119 297 -19 60 -28 115 -35 229 -12 169 -20 211 -50 249 -38 49 -74
59 -209 64 -79 2 -137 9 -157 18 -17 8 -68 21 -113 28 -69 13 -90 21 -136 57
-30 23 -75 64 -98 90 -66 74 -67 113 -1 165 86 69 105 91 105 125 0 42 -83
416 -113 510 -42 132 -149 370 -199 445 -89 133 -184 184 -344 184 -71 0 -94
10 -94 40 0 8 -20 37 -45 64 -31 35 -49 47 -62 43 -115 -38 -148 -34 -227 25
-54 40 -56 43 -56 89 0 65 30 98 141 155 98 50 144 90 165 141 18 42 18 117
-1 152 -18 35 -79 61 -144 61 -67 0 -112 10 -118 27 -3 8 7 27 21 42 l27 28
177 6 c203 6 317 29 469 95 162 70 208 127 208 258 -1 101 -39 176 -113 220
-65 39 -93 44 -269 44 -138 0 -143 1 -143 21 0 15 -16 27 -63 49 -97 46 -137
48 -244 11 -134 -46 -216 -41 -417 26 -57 18 -92 37 -123 66 -85 79 -140 213
-130 321 5 55 9 64 44 94 21 19 101 74 178 122 174 110 243 166 318 255 70 84
149 238 178 350 31 119 31 285 0 385 -37 120 -96 225 -208 372 -40 53 -43 61
-43 120 0 120 -27 165 -114 190 -57 16 -71 31 -117 119 -34 65 -65 102 -199
235 -88 87 -183 173 -212 191 -118 74 -295 123 -445 123 -103 -1 -159 -12
-226 -46 -55 -27 -154 -33 -197 -11 -57 30 -7 128 108 216 128 97 158 159 149
310 -4 75 -13 119 -41 201 -20 58 -41 139 -47 180 -13 102 -34 156 -72 184
-47 34 -61 37 -189 45 -159 10 -185 25 -293 183 -154 226 -251 324 -396 404
-73 40 -106 73 -129 132 -23 59 -39 62 -337 62 -286 0 -355 -7 -472 -46 -41
-14 -110 -29 -154 -35 -53 -7 -112 -23 -171 -48 -120 -51 -184 -65 -265 -58
-64 5 -88 12 -141 42 -18 11 -61 15 -160 15 -75 0 -234 11 -355 24 -121 14
-278 28 -350 31 -71 4 -184 13 -250 21 -141 17 -232 18 -306 4 -50 -10 -55 -9
-88 18 -54 44 -63 47 -349 141 -313 104 -352 121 -747 323 -234 119 -315 166
-369 212 -185 157 -362 242 -631 301 -66 15 -241 67 -390 115 -350 114 -395
124 -543 117 -89 -4 -136 -11 -195 -31 -111 -37 -132 -30 -259 89 -55 52 -121
104 -146 117 -64 31 -157 29 -288 -5 -129 -34 -229 -44 -278 -27 -21 7 -80 41
-132 76 -285 193 -573 275 -1024 293 -225 9 -257 16 -302 69 -14 17 -34 53
-43 79 -49 142 -68 156 -217 159 -62 1 -179 7 -259 14 -114 10 -163 10 -227 1
-75 -11 -84 -10 -121 8 -21 11 -93 31 -158 43 -106 21 -147 23 -408 23 -263
-1 -316 -4 -570 -34 -154 -18 -342 -35 -417 -38 -128 -6 -141 -4 -200 18 -46
18 -83 24 -138 24 -100 0 -174 -35 -299 -141 -146 -124 -200 -161 -287 -194
-44 -16 -101 -43 -125 -59 -44 -28 -104 -93 -128 -138 -12 -23 -14 -23 -209
-23 -269 1 -325 8 -398 53 -149 91 -303 105 -502 48 -125 -36 -163 -37 -317
-7 -102 20 -293 20 -460 1 -316 -36 -399 -76 -475 -227 -25 -51 -38 -88 -34
-100 6 -20 -20 -58 -39 -58 -6 0 -31 -10 -55 -21 -38 -19 -55 -21 -125 -16
-123 9 -369 75 -572 155 -99 38 -212 80 -252 93 -67 21 -73 26 -88 61 -8 21
-15 48 -15 60 0 28 -56 115 -79 121 -9 2 -31 28 -48 58 -48 83 -117 159 -252
279 -119 105 -170 140 -205 140 -10 0 -38 -11 -64 -25 -26 -14 -59 -25 -74
-25 -24 0 -58 -22 -58 -38 0 -4 11 -38 25 -77 33 -94 34 -173 2 -203 -19 -18
-89 -48 -91 -39 -1 1 -22 46 -48 100 -57 115 -66 119 -140 53 -45 -41 -136
-86 -174 -86 -8 0 -63 -17 -122 -37 l-107 -37 -215 -1 -215 0 3 -25 c6 -59 13
-69 63 -96 48 -27 79 -65 79 -98 0 -41 -38 -116 -95 -189 -113 -142 -122 -223
-39 -338 19 -26 34 -53 34 -62 0 -31 -91 -53 -385 -92 -132 -18 -190 -12 -252
26 -42 26 -78 88 -92 158 -6 30 -17 61 -23 69 -20 24 -120 84 -168 102 -48 17
-48 17 -117 165 -17 35 -39 65 -55 74 -24 14 -29 13 -79 -21 -30 -20 -92 -50
-139 -66 -123 -43 -193 -76 -244 -116 -65 -50 -124 -69 -191 -64 -46 4 -62 10
-92 39 -19 19 -49 62 -65 97 -37 81 -59 93 -127 64 -126 -55 -268 -66 -452
-35 -54 9 -102 13 -105 10 -3 -3 -8 -29 -10 -58 -3 -48 -17 -79 -34 -79 -4 0
-31 36 -59 80 -29 43 -64 88 -78 100 -32 25 -98 43 -129 36 -19 -5 -24 -2 -24
14 0 16 -7 20 -35 20 -23 0 -35 5 -35 14 0 9 -19 15 -62 19 -98 9 -136 52
-137 158 -1 67 -22 88 -97 99 -101 14 -134 38 -196 143 -51 87 -71 97 -129 64
-24 -13 -57 -28 -74 -32 -16 -3 -45 -14 -63 -22 -43 -20 -52 -9 -52 62 l0 51
73 21 c147 44 177 84 177 239 l0 101 -95 33 c-64 21 -99 39 -107 53 -6 11 -17
79 -24 151 -16 153 -36 224 -78 279 -80 104 -315 166 -627 167 -181 0 -230 22
-293 131 -36 64 -131 151 -202 186 -64 33 -152 63 -254 88 -107 26 -117 32
-182 123 -175 243 -330 327 -540 293 -63 -10 -88 -9 -189 9 -189 33 -352 49
-575 56 -228 7 -214 4 -334 80 -85 54 -167 76 -303 82 -96 4 -120 8 -130 22
-22 30 -61 48 -157 72 -143 35 -323 31 -530 -10 -357 -72 -456 -86 -625 -86
-138 -1 -173 2 -255 23 -127 33 -284 34 -380 3 -36 -12 -80 -22 -97 -22 -30 0
-33 3 -33 29 0 20 -6 31 -17 35 -10 3 -92 12 -183 21 -250 24 -230 18 -230 70
0 25 11 87 24 139 14 52 30 143 36 203 7 59 22 164 35 233 32 169 40 235 75
600 30 325 60 489 100 555 20 32 59 58 103 69 15 3 27 11 27 16 0 6 14 29 30
52 34 46 41 118 16 153 -7 11 -29 54 -47 95 -33 73 -33 78 -34 215 0 116 -3
146 -18 173 -10 18 -23 72 -28 120 -6 48 -17 116 -25 152 -8 36 -19 85 -25
110 -5 24 -14 49 -19 54 -6 6 -10 33 -10 61 0 52 -27 119 -75 184 -17 23 -25
47 -25 75 0 27 -12 67 -33 111 -19 39 -39 86 -46 106 -6 20 -27 54 -45 75 -18
21 -43 58 -54 80 -12 23 -49 77 -84 120 -68 86 -128 180 -128 201 0 7 18 50
40 95 48 100 56 138 40 187 -11 35 -10 40 19 86 70 111 121 293 121 434 0 69
3 85 25 117 14 20 25 42 25 49 0 15 38 48 72 62 14 7 34 24 45 38 10 15 44 56
75 93 82 96 112 160 117 250 3 66 0 79 -28 137 -23 46 -53 84 -108 135 -64 60
-80 81 -96 128 -10 31 -48 101 -84 155 -53 77 -67 107 -70 145 -4 42 -2 50 24
73 15 14 138 89 273 166 172 97 276 150 345 173 54 19 123 49 153 67 30 18 65
33 79 33 37 0 62 16 140 94 40 39 91 89 114 111 124 121 248 266 265 312 10
26 40 73 67 103 26 30 67 92 89 138 36 72 42 93 46 166 4 80 2 92 -67 322 -40
131 -77 244 -82 249 -7 7 -20 -1 -38 -22 -17 -21 -37 -33 -52 -33 -31 0 -55
15 -40 24 16 10 13 52 -4 66 -13 11 -21 8 -46 -16 -49 -46 -60 -79 -70 -198
-4 -61 -13 -131 -18 -156 -6 -25 -10 -104 -11 -176 l0 -130 -82 -81 c-79 -76
-131 -113 -160 -113 -22 0 -138 -59 -170 -85 -42 -36 -63 -32 -97 18 -16 23
-37 50 -45 60 -9 9 -16 34 -16 56 0 30 5 42 25 55 42 27 75 69 81 104 12 63
-17 111 -134 217 -62 57 -112 111 -120 130 -20 51 -2 100 63 170 177 191 199
358 76 575 -79 139 -88 161 -100 254 -32 242 -175 423 -371 471 -36 9 -73 20
-82 25 -11 6 -159 10 -362 10 l-344 0 -11 -28z m411 -1888 l32 -16 -25 -14
c-15 -8 -57 -13 -111 -14 -79 0 -87 2 -81 18 3 9 13 23 21 30 23 18 127 15
164 -4z m-490 -1931 c84 -14 95 -18 80 -29 -10 -8 -46 -14 -87 -14 -42 0 -81
-6 -99 -15 -16 -8 -54 -15 -87 -15 -56 0 -59 1 -59 24 0 28 16 36 75 36 29 0
45 5 49 15 7 19 11 19 128 -2z m-6512 -223 c0 -11 -7 -20 -15 -20 -15 0 -21
21 -8 33 12 13 23 7 23 -13z m6942 -192 c55 -21 17 -29 -106 -23 -107 6 -128
5 -181 -13 -33 -11 -61 -19 -63 -17 -8 7 21 47 38 53 32 12 283 12 312 0z
m123 -488 c79 -1 56 -14 -61 -35 -93 -17 -518 -33 -550 -21 -15 6 -15 9 6 31
22 23 30 25 121 25 72 0 108 -5 134 -17 35 -17 39 -16 113 4 51 15 94 21 127
18 28 -3 77 -5 110 -5z m-200 -405 c0 -5 -25 -19 -55 -30 -51 -18 -78 -19
-376 -17 -224 1 -365 -2 -466 -13 -144 -14 -208 -10 -223 16 -8 12 13 39 40
50 30 12 1080 6 1080 -6z m-6862 -3748 c18 -8 53 -35 80 -60 41 -41 47 -51 47
-88 0 -35 -10 -58 -55 -125 -82 -123 -112 -141 -181 -108 -54 26 -79 89 -77
201 1 110 15 158 51 178 34 18 93 19 135 2z m814 -204 c63 -30 73 -59 73 -217
l0 -138 -122 4 c-134 4 -166 15 -192 67 -37 73 -28 138 31 215 63 82 134 105
210 69z m3085 -109 c51 -26 64 -93 29 -150 -38 -62 -191 -95 -274 -61 -71 30
-97 121 -48 170 10 11 57 30 103 42 88 24 141 24 190 -1z m-2281 -75 c23 -23
22 -45 -7 -146 -15 -56 -51 -93 -89 -93 -37 0 -50 26 -48 96 3 124 83 204 144
143z m584 -253 l35 -15 0 -83 c0 -124 -8 -143 -103 -235 -119 -117 -168 -126
-257 -46 -93 84 -121 182 -71 251 28 41 123 87 216 107 44 10 87 21 95 26 22
12 46 11 85 -5z m2100 -113 c76 -38 138 -75 141 -85 10 -34 -23 -75 -74 -92
-53 -18 -95 -55 -111 -99 -10 -26 -8 -31 24 -60 62 -55 46 -101 -55 -152 -80
-40 -111 -43 -147 -15 -14 11 -40 20 -59 20 -31 0 -33 -2 -44 -52 -33 -150
-22 -201 45 -214 20 -3 35 -12 35 -20 0 -10 -8 -13 -22 -10 -13 3 -43 7 -67
11 -122 16 -201 130 -201 288 0 37 -9 64 -40 121 -33 60 -40 82 -40 127 0 56
10 79 58 132 30 32 52 35 52 7 0 -10 14 -35 31 -55 27 -30 37 -35 75 -35 47 0
48 1 45 62 -2 28 2 39 18 48 18 9 30 5 79 -29 31 -22 69 -43 85 -46 l27 -7 0
111 c0 61 2 111 5 111 3 0 66 -30 140 -67z m-3139 -138 c13 -8 21 -21 18 -29
-6 -17 70 -56 110 -56 43 0 100 -35 130 -80 56 -85 161 -168 306 -240 36 -18
83 -49 105 -69 22 -20 75 -56 118 -80 79 -44 97 -65 97 -117 0 -28 -18 -31
-58 -10 -15 8 -62 14 -109 15 -78 2 -83 0 -99 -24 -17 -26 -15 -73 7 -157 12
-47 29 -48 63 -3 32 42 43 43 58 10 10 -22 9 -28 -10 -41 -22 -15 -42 -70 -42
-115 0 -15 -7 -29 -15 -33 -37 -14 -8 -104 69 -214 65 -93 82 -136 91 -229 8
-94 -11 -132 -77 -148 -69 -17 -92 -37 -159 -136 -56 -84 -63 -90 -87 -84 -50
12 -58 28 -44 93 7 32 12 67 12 78 0 14 16 27 58 46 101 47 165 126 165 203 0
48 -38 121 -96 181 -25 27 -40 53 -42 73 -1 17 -7 36 -13 44 -6 7 -15 24 -20
37 l-9 24 -26 -26 c-15 -15 -34 -45 -43 -67 -9 -23 -22 -41 -29 -41 -7 0 -35
31 -63 69 -58 80 -98 106 -151 97 -48 -8 -157 -83 -173 -120 -6 -16 -27 -44
-45 -62 -38 -39 -41 -57 -13 -102 11 -18 20 -35 20 -37 0 -3 -27 -5 -59 -5
-68 0 -95 -8 -131 -40 -56 -50 -68 -54 -110 -40 -36 12 -42 11 -60 -5 -10 -9
-23 -36 -28 -59 -7 -33 -12 -40 -28 -37 -10 2 -35 4 -54 5 -35 1 -35 1 -44
-53 l-9 -54 60 -58 c44 -43 69 -59 99 -64 56 -11 74 -30 74 -81 0 -51 -17 -64
-78 -64 -37 0 -45 5 -97 65 -66 75 -131 111 -217 121 -45 5 -61 12 -73 30 -30
46 -69 57 -170 50 l-92 -7 -121 80 c-111 74 -122 83 -122 111 0 46 21 42 114
-24 25 -18 27 -18 76 0 l50 18 27 -26 c32 -30 65 -48 87 -48 11 0 14 8 10 33
-4 25 2 44 30 87 73 113 73 112 37 221 -35 108 -58 135 -135 164 -90 33 -105
73 -62 168 15 34 15 38 1 43 -22 9 -104 -24 -132 -52 -29 -30 -29 -62 1 -103
48 -65 0 -127 -81 -105 -22 6 -23 11 -23 95 0 94 -15 150 -45 167 -19 10 -39
59 -55 139 -6 29 -16 55 -21 58 -14 9 -10 58 7 80 8 11 24 49 34 84 11 35 33
87 49 115 16 28 32 64 35 80 12 52 63 90 179 134 280 108 558 154 896 146 117
-2 159 -7 177 -19z m1864 -111 c53 -12 75 -22 94 -45 14 -16 33 -29 43 -29 23
0 100 -48 130 -81 13 -14 32 -63 46 -115 28 -103 39 -128 74 -166 31 -33 27
-57 -13 -72 -18 -6 -55 -32 -84 -58 -52 -46 -53 -46 -46 -92 9 -55 44 -89 90
-84 31 3 37 12 51 81 7 34 25 35 25 1 0 -14 14 -56 30 -94 40 -91 39 -96 -12
-92 -67 5 -81 -11 -87 -104 l-6 -78 -40 -23 c-48 -27 -57 -18 -49 47 8 69 -8
86 -114 131 -184 78 -237 73 -384 -39 -51 -39 -120 -104 -153 -143 l-60 -72
-5 219 c-4 186 -8 224 -23 252 -10 18 -21 55 -24 82 -5 46 -4 51 28 83 36 36
102 57 177 57 129 0 216 94 198 215 -17 116 -48 163 -114 172 -58 8 -82 -14
-82 -76 0 -29 -9 -61 -23 -86 -34 -61 -86 -76 -280 -84 -86 -3 -157 -4 -157 0
0 3 13 25 28 50 58 89 167 169 296 216 120 43 323 55 446 27z m1033 -790 l80
-36 43 22 c53 26 85 21 154 -21 44 -27 54 -29 151 -29 171 0 286 -27 313 -73
8 -13 8 -20 -3 -26 -11 -7 -14 -32 -12 -115 2 -85 -1 -113 -17 -148 -20 -46
-83 -108 -109 -108 -23 0 -9 -57 21 -90 13 -14 34 -44 46 -68 19 -36 22 -54
18 -113 -8 -102 -58 -159 -151 -173 l-44 -7 -13 -59 -13 -59 -152 -91 c-84
-50 -186 -104 -226 -121 -84 -34 -115 -63 -125 -114 -3 -19 -11 -35 -16 -35
-11 0 -47 -43 -63 -75 -9 -16 -23 -21 -78 -25 -89 -7 -104 -29 -72 -107 11
-26 13 -45 6 -69 -8 -29 -6 -36 12 -49 12 -8 34 -15 49 -15 14 0 34 -8 43 -17
16 -16 16 -17 -3 -24 -11 -4 -34 -28 -51 -53 -42 -61 -62 -71 -102 -50 -17 8
-54 18 -83 21 -42 4 -59 0 -100 -22 -46 -24 -50 -25 -67 -9 -11 9 -19 22 -19
28 0 6 27 36 61 67 58 55 60 59 71 125 5 38 21 87 34 110 40 69 26 126 -42
173 -20 14 -34 32 -34 44 0 26 -28 57 -51 57 -10 0 -26 -11 -37 -25 l-19 -24
-22 20 c-33 31 -26 58 25 105 25 24 44 48 42 55 -2 7 -28 21 -57 31 -67 24
-109 16 -163 -29 -58 -49 -74 -56 -98 -43 -26 14 -40 42 -40 79 0 32 3 35 90
83 l31 18 -28 24 -28 24 33 45 c18 26 32 58 32 74 0 16 7 39 16 52 23 32 76
24 144 -23 33 -23 64 -36 85 -36 35 0 96 30 145 72 l31 28 -31 45 c-41 60 -35
79 23 71 145 -20 141 -21 170 14 35 41 35 91 1 172 -19 46 -24 70 -19 99 6 35
4 40 -19 51 -24 10 -28 9 -43 -13 -50 -71 -111 -101 -166 -80 -16 6 -46 11
-68 11 -38 0 -39 1 -39 35 0 19 4 35 10 35 5 0 16 13 25 30 12 24 13 38 5 76
-8 34 -7 50 1 60 11 13 9 44 -6 91 -7 23 -7 23 30 7 53 -22 92 -12 166 43 102
75 171 112 208 113 18 0 69 -16 114 -36z m9006 -13 c58 -30 68 -64 42 -150
-12 -38 -21 -77 -21 -86 0 -31 -66 -48 -183 -47 -59 1 -112 4 -117 7 -5 3 -16
29 -25 57 -12 40 -13 60 -4 92 30 110 202 181 308 127z m-13307 -101 c-13 -41
-20 -50 -39 -50 -39 0 -60 69 -25 89 9 6 31 11 49 11 l31 0 -16 -50z m-1474
-87 c5 -33 -34 -102 -63 -109 -35 -9 -45 2 -45 52 0 56 27 87 73 82 24 -2 33
-8 35 -25z m1937 -23 c14 -28 14 -31 -4 -49 -24 -24 -88 -38 -110 -24 -9 6
-23 22 -31 37 -14 26 -14 28 9 47 16 13 39 19 72 19 44 0 50 -3 64 -30z m-508
-22 c31 -29 29 -46 -12 -90 -39 -43 -58 -47 -79 -17 -15 22 -14 26 19 117 7
19 46 14 72 -10z m290 -134 c18 -25 16 -41 -7 -64 -13 -13 -33 -20 -58 -20
-61 0 -79 35 -45 86 15 23 22 25 57 21 22 -3 46 -14 53 -23z m-3477 -19 c19
-6 150 -76 168 -90 2 -2 -2 -12 -9 -23 -10 -16 -10 -30 4 -73 10 -29 14 -56 9
-61 -8 -8 -215 123 -260 165 -30 28 -26 67 8 84 14 7 32 11 40 9 8 -3 26 -8
40 -11z m3034 -97 c-19 -53 -30 -67 -53 -61 -10 3 -32 -2 -49 -11 -46 -24 -55
-20 -37 13 17 34 66 74 110 89 45 16 45 15 29 -30z m9126 -48 c146 -24 173
-36 234 -107 47 -54 56 -71 56 -103 0 -58 -7 -68 -74 -102 -33 -17 -82 -50
-108 -74 -53 -50 -69 -52 -188 -32 -48 8 -70 16 -70 26 0 29 -43 83 -86 108
-53 31 -102 28 -140 -7 -30 -28 -30 -48 1 -109 35 -68 31 -80 -11 -39 -51 49
-92 140 -106 234 -13 93 -8 124 30 165 46 52 88 61 252 56 80 -3 174 -10 210
-16z m-9992 -77 c31 -5 32 -7 32 -53 0 -73 -17 -81 -96 -42 -69 34 -77 49 -48
91 14 19 22 22 48 16 17 -3 46 -9 64 -12z m-4068 -55 c10 -84 55 -302 70 -336
12 -27 44 -69 75 -97 l54 -50 -19 -55 c-10 -30 -21 -97 -25 -150 -4 -52 -13
-120 -20 -152 -15 -61 -74 -161 -104 -178 -63 -33 -281 28 -281 79 0 5 11 29
25 52 29 52 32 99 7 122 -9 9 -71 29 -136 46 -66 17 -126 37 -134 45 -21 21
-42 110 -33 142 11 42 54 70 88 58 25 -8 102 -106 115 -145 5 -16 77 21 118
63 64 64 95 178 109 400 8 138 16 158 62 158 16 0 29 -1 29 -2z m2247 -63 c26
-18 36 -66 25 -114 l-7 -34 -36 31 c-19 17 -47 53 -63 81 l-27 51 43 0 c24 0
53 -7 65 -15z m4506 -29 c15 -24 27 -48 27 -54 0 -6 -15 -21 -32 -34 -31 -21
-42 -23 -147 -21 -63 2 -119 7 -124 12 -6 6 5 27 28 55 37 46 54 54 150 75 65
14 69 13 98 -33z m1050 24 c37 -29 49 -75 37 -139 -5 -30 -10 -74 -10 -98 0
-55 31 -90 89 -99 25 -4 41 -12 41 -20 0 -8 6 -14 13 -14 7 0 31 -19 52 -41
22 -23 55 -48 72 -55 34 -15 51 -50 39 -80 -5 -13 -15 -15 -42 -11 -19 3 -46
1 -59 -5 -18 -8 -40 -7 -89 6 -101 25 -139 22 -170 -15 -14 -17 -26 -36 -26
-42 -1 -32 -17 -39 -48 -23 -21 11 -58 16 -115 16 -96 0 -131 -17 -145 -73 -8
-32 -9 -32 -103 -48 -82 -13 -96 -14 -111 -1 -25 21 -8 47 53 77 65 33 256
189 280 229 10 17 24 54 30 83 10 45 16 52 38 55 16 2 34 16 48 37 20 30 23
46 23 142 0 108 0 108 28 123 36 20 45 20 75 -4z m2597 -169 c5 -11 10 -32 10
-47 0 -25 -2 -26 -32 -20 -48 10 -64 29 -50 61 14 31 56 34 72 6z m2251 -280
l24 -20 -66 -1 c-50 0 -72 5 -89 18 -22 18 -21 18 43 20 52 2 69 -1 88 -17z
m-1662 -163 c25 -59 39 -128 46 -230 5 -62 11 -88 20 -88 20 0 51 -135 80
-345 14 -104 35 -227 45 -273 20 -83 27 -222 12 -222 -4 0 -24 11 -45 25 -45
31 -55 65 -34 111 12 24 14 41 7 58 -5 14 -12 71 -16 128 -4 57 -13 118 -20
137 -8 18 -14 52 -14 75 0 50 -24 164 -47 228 -12 33 -23 48 -37 50 -41 6 -74
141 -43 176 27 30 30 83 7 127 -27 52 -27 85 0 85 15 0 26 -12 39 -42z m847
16 c16 -24 16 -26 -4 -46 -15 -15 -27 -19 -46 -14 -32 8 -33 32 -4 63 27 29
34 29 54 -3z m-1676 -90 c16 -40 12 -85 -16 -190 -20 -74 -27 -126 -29 -205
-1 -87 -5 -112 -22 -140 -67 -111 -75 -303 -16 -426 26 -57 27 -57 37 -31 14
33 45 68 61 68 17 0 25 31 34 129 7 78 11 87 40 113 30 27 31 29 31 117 0 74
4 98 24 138 13 26 27 63 31 82 10 49 105 171 160 204 26 17 48 39 51 53 8 30
45 60 87 70 17 3 41 12 52 19 11 7 34 16 51 20 32 6 32 6 53 -61 12 -37 21
-89 21 -115 0 -41 -4 -51 -31 -73 -17 -15 -58 -34 -91 -43 -34 -10 -63 -24
-69 -35 -14 -25 9 -65 57 -97 21 -15 40 -37 42 -49 3 -21 -25 -38 -150 -90
-44 -18 -39 -65 12 -111 22 -20 40 -39 40 -41 0 -3 -16 -14 -35 -24 -20 -11
-45 -36 -58 -55 -19 -32 -22 -49 -22 -153 0 -105 -2 -120 -21 -138 -11 -11
-33 -23 -50 -26 -16 -3 -47 -10 -69 -16 -22 -7 -103 -12 -181 -12 l-141 -1
-35 -37 c-51 -55 -73 -51 -93 18 -15 52 -15 60 4 137 30 123 34 230 17 437
-21 244 -20 400 3 464 23 65 103 125 169 126 37 0 44 -4 52 -26z m-4513 -181
c15 -20 43 -52 61 -71 17 -19 32 -39 32 -43 0 -5 18 -18 40 -29 22 -11 41 -26
41 -33 3 -27 -4 -43 -27 -65 -43 -41 -19 -66 35 -37 29 14 32 14 38 0 7 -19
-21 -59 -58 -87 -34 -25 -96 -25 -145 0 -48 25 -218 169 -222 189 -2 8 -15 31
-28 50 -13 20 -24 49 -24 65 0 24 7 32 43 48 23 11 51 20 62 20 11 0 31 7 45
15 44 25 76 19 107 -22z m8227 -32 c7 -11 -86 -91 -106 -91 -8 0 -35 -13 -59
-30 -52 -35 -65 -37 -79 -11 -28 53 0 110 54 112 17 0 47 7 66 14 40 16 116
19 124 6z m371 -133 c31 -14 32 -28 0 -62 -45 -48 -92 -26 -79 38 5 29 11 36
30 36 13 0 35 -5 49 -12z m-4597 -10 c18 -18 14 -41 -14 -79 -40 -53 -46 -76
-29 -109 18 -35 20 -110 3 -133 -12 -15 -16 -12 -45 30 -30 46 -32 53 -35 156
-3 104 -2 110 21 128 26 21 81 25 99 7z m3260 -27 c8 -5 12 -22 10 -42 -3 -32
-5 -34 -45 -37 -41 -3 -43 -2 -43 24 0 48 43 78 78 55z m-1212 -115 c38 -38
41 -55 18 -117 -9 -24 -20 -94 -24 -155 -5 -90 -11 -118 -29 -148 -50 -80 -71
-35 -71 147 1 100 4 137 15 151 10 13 15 43 15 81 0 88 19 98 76 41z m1724 28
c0 -4 -10 -24 -22 -45 -22 -40 -61 -60 -80 -41 -18 18 -5 66 22 79 26 13 80
18 80 7z m6352 -164 c21 -6 42 -19 48 -30 16 -29 12 -109 -7 -141 -36 -61
-135 -79 -172 -32 -42 53 -38 80 28 171 33 45 44 48 103 32z m-6064 -30 c38
-23 39 -30 11 -56 -31 -28 -111 -26 -140 3 l-22 21 49 26 c60 31 61 31 102 6z
m-7096 -16 c17 -9 42 -29 55 -44 13 -16 37 -31 52 -35 16 -3 32 -12 34 -19 3
-8 17 -16 31 -20 14 -3 37 -17 51 -31 15 -13 56 -34 92 -46 36 -12 74 -30 85
-41 23 -23 79 -48 106 -48 10 0 27 -9 36 -19 10 -11 32 -25 49 -31 18 -7 70
-32 117 -55 47 -23 112 -52 145 -65 33 -13 84 -44 112 -69 48 -40 51 -46 38
-61 -8 -9 -15 -25 -15 -36 0 -11 -15 -34 -33 -52 l-33 -32 -30 31 c-16 16 -49
39 -73 50 -25 11 -63 34 -85 53 -23 18 -70 48 -106 66 -36 18 -76 41 -90 52
-55 43 -164 108 -180 108 -9 0 -55 34 -101 75 -46 41 -106 86 -134 101 -27 15
-71 45 -98 65 -26 21 -62 43 -81 50 -26 9 -32 17 -28 31 4 16 26 32 50 37 2 1
17 -6 34 -15z m3178 -299 c0 -42 -2 -45 -27 -45 -14 0 -35 8 -45 17 -18 16
-17 18 24 45 24 15 44 28 46 28 1 0 2 -20 2 -45z m1960 -60 c0 -8 -16 -45 -35
-82 -20 -36 -34 -72 -31 -79 6 -14 -20 -39 -51 -48 -16 -5 -23 -2 -28 15 -12
36 17 100 69 156 50 53 76 66 76 38z m-4990 -75 c6 -11 74 -52 153 -91 186
-93 327 -178 477 -289 96 -71 129 -90 155 -90 63 0 66 -5 37 -72 -15 -33 -37
-67 -49 -75 -22 -14 -27 -13 -86 26 -34 22 -78 46 -97 52 -19 7 -80 48 -135
92 -133 107 -286 207 -416 273 -113 56 -119 63 -119 136 0 54 57 81 80 38z
m6160 -12 c20 -37 1 -58 -54 -58 -65 0 -72 17 -24 57 46 38 57 38 78 1z
m-2332 -19 c1 -8 -7 -27 -18 -42 -17 -21 -30 -27 -60 -27 -39 0 -90 17 -90 30
0 15 32 34 78 46 58 16 86 14 90 -7z m3097 -16 c44 -66 27 -112 -56 -146 -19
-8 -51 -29 -71 -46 -40 -35 -54 -38 -86 -15 -21 14 -21 17 -7 44 8 16 42 47
74 69 61 42 96 78 106 112 8 26 10 25 40 -18z m728 -72 c52 -36 92 -78 197
-209 76 -95 81 -106 71 -128 -19 -43 -12 -66 30 -106 40 -38 42 -39 60 -21 15
15 16 26 8 73 -5 36 -16 61 -29 72 -20 16 -19 17 25 24 25 3 86 4 135 2 77 -4
98 -9 163 -41 144 -71 192 -162 168 -317 -14 -89 -56 -170 -95 -184 -21 -8
-31 -6 -54 12 -64 52 -100 51 -161 -3 -35 -32 -44 -35 -100 -35 -33 0 -61 4
-61 9 0 18 30 40 80 56 53 17 98 61 81 78 -5 5 -41 13 -80 16 -72 7 -111 28
-111 60 0 25 -59 91 -81 91 -32 0 -139 -177 -139 -230 0 -18 -6 -20 -72 -20
-48 1 -80 6 -92 15 -12 9 -42 15 -79 15 -51 0 -60 3 -64 20 -10 38 -53 50
-178 50 -119 0 -133 6 -93 38 138 110 217 241 234 386 l6 53 -33 6 c-25 4 -50
-3 -95 -25 -69 -35 -104 -33 -129 6 -30 45 14 82 105 89 25 2 55 9 67 15 12 7
52 12 89 12 95 0 154 39 154 102 0 21 16 48 28 48 2 0 22 -13 45 -29z m-1809
-37 c34 -17 56 -49 56 -84 0 -19 -44 -60 -65 -60 -7 0 -23 -8 -36 -19 -28 -21
-61 -14 -78 18 -16 29 -13 50 9 78 11 14 20 33 20 42 0 41 38 51 94 25z
m-9177 -206 c21 -23 62 -66 91 -96 28 -30 52 -62 52 -73 0 -10 23 -40 50 -67
29 -29 50 -58 50 -71 0 -11 -3 -21 -8 -21 -19 0 -73 62 -79 90 -3 18 -13 34
-22 38 -9 3 -30 16 -47 29 -40 30 -58 29 -83 -4 -12 -14 -22 -24 -24 -22 -1 2
-23 29 -48 59 -76 91 -82 111 -48 154 32 40 69 35 116 -16z m7923 -59 c6 -10
10 -47 10 -83 0 -46 5 -69 16 -81 13 -13 16 -32 12 -104 -5 -107 -34 -167
-101 -205 -113 -64 -151 -56 -148 35 1 66 11 76 41 44 30 -32 53 -32 79 2 31
38 35 68 17 106 -18 40 -18 137 2 137 8 0 12 20 12 64 0 78 13 118 35 110 9
-4 20 -15 25 -25z m2550 -98 c16 -30 12 -39 -21 -56 -36 -19 -59 -7 -59 32 0
38 62 57 80 24z m-18971 -129 c50 -25 71 -60 81 -133 5 -35 12 -74 16 -87 9
-31 -9 -48 -59 -57 l-42 -7 30 -14 c30 -15 30 -15 -21 -11 -45 3 -61 12 -152
80 -113 86 -129 103 -76 81 60 -25 61 -10 1 34 -62 46 -73 78 -40 114 23 26
211 26 262 0z m-5739 -429 c17 -89 42 -200 57 -247 29 -95 27 -116 -15 -116
-36 0 -120 62 -127 93 -37 176 -32 306 17 420 27 63 28 62 68 -150z m1114 146
c41 -32 60 -113 60 -259 0 -138 -10 -176 -56 -198 -45 -21 -99 18 -99 73 0 11
4 97 10 192 12 214 23 240 85 192z m13427 -458 c60 -59 107 -115 122 -147 14
-28 48 -75 74 -105 73 -81 92 -108 103 -148 5 -21 37 -67 76 -111 84 -95 137
-170 169 -240 52 -110 59 -121 107 -156 45 -32 88 -99 88 -137 0 -7 13 -40 30
-75 21 -44 39 -68 65 -83 19 -12 35 -23 35 -26 0 -3 -10 -13 -22 -23 -22 -17
-23 -16 -170 113 -81 72 -148 136 -148 143 0 7 -26 47 -59 91 -32 43 -62 88
-65 101 -6 19 -4 22 21 22 34 0 73 25 73 46 0 16 -96 109 -134 131 -36 21 -59
16 -53 -9 3 -13 9 -41 12 -63 l7 -40 -23 22 c-12 12 -33 50 -45 83 l-22 61 24
9 c34 13 39 34 20 85 -24 63 -71 123 -110 142 -46 22 -66 12 -66 -32 0 -44
-16 -45 -57 -2 -41 42 -43 54 -13 70 30 15 39 54 14 64 -11 4 -22 -2 -34 -17
l-17 -23 -25 34 c-14 19 -42 66 -61 104 -19 39 -45 79 -57 90 -52 47 -58 99
-13 123 29 17 55 0 154 -97z m5955 -482 l33 -32 -29 -23 c-15 -13 -36 -24 -45
-24 -44 0 -63 84 -22 100 12 5 24 9 27 9 2 1 19 -13 36 -30z m-5039 -71 c68
-53 163 -152 262 -273 52 -63 60 -76 40 -70 -64 20 -89 37 -134 91 -27 33 -95
104 -152 159 -82 80 -103 106 -103 128 0 33 1 33 87 -35z m4032 -337 c15 -15
18 -29 14 -58 -2 -21 0 -57 5 -80 9 -38 8 -43 -8 -43 -10 0 -32 16 -49 35 -17
19 -35 35 -41 35 -6 0 -20 5 -31 10 -17 10 -18 13 -4 26 8 9 15 26 15 39 0 13
3 30 6 39 9 23 69 21 93 -3z m-3586 -81 c34 -29 77 -95 77 -120 0 -14 -26 -12
-60 5 -22 12 -120 150 -120 170 0 10 69 -26 103 -55z m238 -222 c41 -28 135
-112 209 -185 128 -128 133 -133 85 -110 -28 14 -97 40 -155 57 -122 38 -205
77 -255 121 -37 33 -44 49 -21 49 28 0 46 30 46 76 0 24 4 44 8 44 5 0 42 -23
83 -52z m4135 -48 c29 0 31 -17 7 -58 -25 -43 -10 -73 57 -120 60 -41 75 -73
41 -92 -31 -16 -151 -52 -162 -48 -6 2 -23 34 -39 72 -36 84 -52 103 -101 116
-44 12 -61 48 -38 77 28 32 130 65 183 57 16 -2 39 -4 52 -4z m153 -532 c18
-50 4 -85 -40 -102 -62 -25 -97 -21 -130 15 -23 25 -29 40 -29 75 0 38 6 51
41 89 l41 44 54 -46 c29 -25 58 -59 63 -75z m14509 -379 c70 -35 82 -44 82
-66 0 -25 0 -25 -27 -8 -53 34 -180 126 -214 156 -30 26 -28 25 21 -6 30 -20
92 -54 138 -76z m-16488 -626 c185 -124 201 -143 164 -184 -28 -31 -71 -24
-130 21 -29 22 -64 40 -78 40 -14 0 -37 5 -53 10 -34 13 -203 113 -203 120 0
3 14 14 30 23 31 19 60 63 60 92 0 20 -4 23 210 -122z m13665 50 c39 -8 90
-23 115 -31 34 -12 92 -16 245 -18 110 -1 224 -6 254 -13 29 -6 123 -11 207
-11 170 0 184 -5 184 -64 0 -56 -27 -70 -141 -74 -67 -3 -118 1 -161 12 -48
12 -129 17 -333 19 -239 3 -274 5 -305 22 -31 16 -57 18 -212 16 -108 -1 -178
2 -178 8 0 5 -3 16 -6 24 -7 19 48 82 90 104 65 34 111 35 241 6z m1449 -89
c21 -21 20 -57 -1 -76 -10 -8 -51 -21 -92 -28 -73 -12 -75 -12 -93 10 -24 29
-23 65 2 90 16 16 33 20 94 20 54 0 79 -4 90 -16z m-9680 -276 c20 -28 21 -72
2 -87 -7 -6 -42 -14 -77 -17 -57 -6 -66 -4 -83 15 -31 34 -10 65 61 89 75 26
79 26 97 0z m1120 -130 c63 -56 90 -104 80 -143 -7 -30 -6 -30 -67 -8 -46 17
-48 17 -68 -4 -25 -25 -20 -62 11 -93 34 -34 67 -26 98 25 17 28 38 48 58 55
17 6 55 33 86 60 31 27 68 54 82 60 30 11 82 3 111 -17 11 -7 46 -13 82 -13
60 0 62 -1 54 -22 -8 -23 -22 -29 -95 -45 -52 -11 -56 -29 -10 -37 190 -36
314 -131 314 -242 0 -79 -44 -108 -90 -59 -13 14 -35 25 -50 25 -50 0 -65 43
-35 101 20 38 13 49 -36 49 -22 0 -56 7 -76 15 -70 30 -114 13 -127 -47 -3
-16 -8 -39 -11 -53 -6 -28 -50 -55 -89 -55 -14 0 -48 9 -76 20 -58 23 -101 25
-165 8 -87 -23 -145 32 -145 140 0 42 -5 52 -35 82 -19 19 -35 39 -35 45 0 17
31 41 63 49 30 7 33 19 12 56 -32 57 -4 100 65 100 29 0 47 -10 94 -52z m7606
-288 c0 -16 -30 -25 -200 -58 -248 -50 -376 -64 -587 -64 -106 0 -193 -1 -193
-4 0 -2 14 -11 31 -20 23 -12 28 -19 20 -27 -9 -9 -45 -6 -146 12 -74 12 -144
19 -156 16 -39 -13 -9 16 40 38 39 18 73 22 221 27 102 3 183 10 195 17 11 6
106 16 210 23 105 6 249 20 320 29 153 21 245 25 245 11z m290 -185 c129 -14
246 -31 260 -38 41 -19 -185 -26 -280 -8 -58 11 -182 14 -553 14 -263 0 -475
3 -470 7 65 62 599 75 1043 25z m-1186 -36 c-19 -31 -100 -52 -209 -56 -99 -3
-108 -2 -85 10 25 15 147 44 210 50 75 8 91 7 84 -4z m-10549 -224 c44 -7 118
-23 165 -36 80 -23 83 -24 45 -27 -68 -6 -82 -36 -45 -97 l20 -33 -37 9 c-101
22 -198 71 -318 159 l-70 52 80 -7 c44 -4 116 -13 160 -20z m11677 -19 c28
-12 70 -16 162 -16 69 0 137 -5 152 -10 14 -6 70 -16 123 -24 57 -8 113 -22
136 -35 29 -15 33 -20 15 -16 -82 16 -419 47 -625 57 -290 14 -989 -2 -1145
-27 -52 -8 -189 -30 -305 -48 l-210 -34 -52 45 c-29 25 -51 47 -49 50 9 8 523
50 931 76 33 2 233 2 445 1 325 -3 391 -6 422 -19z m-11218 -89 c17 -13 17
-14 -8 -30 -14 -10 -26 -23 -26 -30 0 -18 42 -55 120 -108 l65 -44 -35 -3
c-42 -4 -90 9 -193 54 -43 19 -86 34 -95 35 -10 1 -7 4 8 8 32 9 37 34 12 68
l-20 27 47 17 c58 21 102 23 125 6z m234 -49 c23 -23 13 -38 -23 -38 -36 0
-85 18 -85 31 0 17 91 24 108 7z m10102 -9 c25 -6 158 -14 295 -19 187 -6 276
-14 355 -30 198 -40 142 -47 -186 -24 -52 3 -128 1 -175 -5 -96 -13 -371 -63
-379 -69 -3 -2 6 -12 19 -23 15 -13 39 -19 70 -19 27 0 56 -7 67 -15 17 -14 0
-15 -171 -13 -104 2 -216 1 -248 -1 -62 -5 -79 4 -92 48 -6 20 2 32 51 77 113
105 215 129 394 93z m-8878 -240 c51 -11 94 -22 96 -24 2 -2 -4 -15 -13 -29
-45 -69 23 -116 179 -126 89 -5 106 -9 146 -34 28 -18 63 -31 93 -34 45 -4 50
-3 87 37 45 47 48 60 20 86 -22 20 -27 50 -7 42 6 -2 39 -12 72 -22 144 -41
177 -67 161 -129 -10 -42 -58 -50 -248 -43 -200 8 -321 25 -563 78 -241 53
-224 46 -178 77 21 14 41 30 45 36 15 21 8 50 -19 78 l-27 28 32 0 c18 0 74
-9 124 -21z m367 -28 c11 -7 5 -11 -23 -16 -42 -8 -104 -1 -120 15 -13 13 123
14 143 1z m-1139 -176 c192 -24 312 -58 335 -95 9 -14 -97 -4 -170 15 -27 8
-95 17 -150 20 -55 4 -153 18 -218 31 -193 39 -253 30 -213 -31 9 -13 16 -36
16 -50 0 -25 -4 -23 -106 47 l-106 73 33 7 c55 11 443 0 579 -17z m437 -121
c26 -9 63 -27 81 -41 26 -20 32 -31 32 -62 0 -27 -10 -54 -32 -87 l-33 -49
-174 -3 c-140 -2 -181 1 -207 13 -18 8 -49 15 -71 15 -21 0 -48 6 -59 14 -11
8 -38 18 -60 22 -47 8 -85 26 -105 50 -15 19 -12 18 116 -11 33 -8 94 -13 135
-12 59 2 82 -2 103 -16 27 -18 29 -17 79 10 53 29 108 92 108 124 0 28 11 49
26 49 7 0 35 -7 61 -16z m-29413 -2317 c9 -7 20 -32 23 -54 5 -36 1 -50 -27
-92 -35 -56 -135 -153 -181 -177 -36 -18 -64 -11 -86 22 -33 52 16 199 84 251
34 26 122 62 154 63 8 0 23 -6 33 -13z m59701 -938 c54 -21 81 -24 285 -29
l225 -5 3 -34 c5 -49 -13 -75 -72 -108 l-51 -28 -201 2 -202 1 -52 36 c-43 30
-61 36 -102 36 l-50 0 4 57 c4 46 10 61 33 81 23 20 36 23 74 19 25 -3 73 -15
106 -28z m-59274 -5669 c22 -12 25 -47 7 -85 -20 -44 -75 -65 -168 -65 -108 0
-140 16 -140 73 0 37 16 66 43 77 31 12 234 12 258 0z m3065 -1155 c34 -23 54
-77 54 -144 l0 -61 -47 0 c-104 0 -167 40 -167 105 0 46 20 81 58 99 39 20 76
20 102 1z m49608 -1347 c48 -73 54 -120 23 -178 -13 -25 -29 -62 -36 -83 -11
-33 -16 -37 -48 -37 -39 0 -80 35 -131 113 -33 50 -36 124 -6 165 33 43 83 72
125 72 36 0 42 -4 73 -52z m16 -418 c54 -55 57 -66 35 -129 -24 -68 -70 -127
-118 -150 -97 -47 -254 -36 -302 21 -27 31 -30 60 -19 155 l7 53 103 40 c111
43 161 57 211 59 26 1 42 -9 83 -49z m-4462 -1475 c53 -109 8 -170 -168 -229
-42 -14 -96 -34 -120 -45 -91 -41 -142 -18 -159 75 -9 45 -7 52 21 96 16 26
45 57 64 68 18 12 43 35 55 51 l20 29 133 0 132 0 22 -45z m-13803 -159 c28
-12 35 -20 35 -43 0 -15 -4 -33 -8 -40 -14 -22 -63 -33 -120 -27 -84 10 -106
36 -82 98 9 24 14 26 75 26 36 0 81 -7 100 -14z"/>
<path d="M26195 41575 c-21 -20 -25 -34 -25 -84 0 -48 3 -61 18 -65 24 -7 93
10 103 26 9 14 11 102 3 131 -8 27 -69 23 -99 -8z"/>
<path d="M27315 40638 c-23 -72 -25 -93 -6 -118 11 -15 30 -26 49 -28 39 -4
62 27 62 85 0 37 -4 44 -30 58 -35 18 -69 19 -75 3z"/>
<path d="M26302 40328 c3 -32 4 -33 51 -34 47 -1 47 -1 47 32 l0 34 -51 0 -50
0 3 -32z"/>
<path d="M26420 40162 c-75 -4 -116 -46 -86 -88 12 -16 16 -16 57 0 35 13 51
15 73 6 36 -13 46 -6 46 35 0 42 -17 51 -90 47z"/>
<path d="M27508 40143 c-47 -29 -64 -96 -28 -108 25 -8 123 20 144 41 19 18
21 55 4 72 -17 17 -88 14 -120 -5z"/>
<path d="M26525 39916 c-16 -12 -17 -16 -6 -30 17 -20 32 -20 57 -1 19 15 19
15 0 30 -24 18 -27 18 -51 1z"/>
<path d="M27034 39544 c-9 -34 22 -65 65 -66 51 -2 67 36 31 72 -12 12 -33 20
-55 20 -29 0 -36 -4 -41 -26z"/>
<path d="M30790 39584 c0 -8 13 -27 29 -42 16 -15 33 -39 36 -54 4 -15 13 -29
21 -32 20 -8 74 16 97 42 42 47 -24 102 -121 102 -49 0 -62 -3 -62 -16z"/>
<path d="M35900 36917 c0 -4 13 -40 29 -80 45 -112 48 -140 21 -197 -22 -47
-22 -50 -6 -75 26 -40 60 -33 111 23 52 55 56 83 24 169 -26 69 -50 105 -89
133 -28 20 -90 38 -90 27z"/>
<path d="M35106 36713 c12 -10 24 -25 27 -33 3 -8 6 -3 6 13 1 15 -3 27 -8 27
-5 0 -18 3 -28 6 -15 5 -15 3 3 -13z"/>
<path d="M24494 42034 c-9 -36 23 -66 73 -68 33 -1 38 2 41 22 5 35 -34 72
-75 72 -27 0 -34 -5 -39 -26z"/>
<path d="M24991 41368 c-27 -28 -31 -40 -31 -87 0 -76 -18 -130 -49 -146 -42
-21 -65 -53 -65 -89 0 -40 41 -106 67 -106 9 0 17 -7 17 -15 0 -19 42 -20 78
-1 37 19 92 90 92 118 0 29 -26 68 -46 68 -17 0 -17 -4 2 97 20 107 16 161
-12 180 -20 13 -24 11 -53 -19z"/>
<path d="M23927 41343 c-15 -15 -7 -83 13 -103 21 -21 29 -23 54 -14 26 10 22
89 -6 108 -24 17 -50 21 -61 9z"/>
<path d="M25174 41256 c-18 -46 34 -92 90 -82 44 8 48 35 11 71 -28 29 -92 35
-101 11z"/>
<path d="M25312 41020 c-24 -11 -67 -39 -95 -63 -76 -64 -130 -98 -245 -156
l-104 -52 -48 16 c-44 15 -50 15 -84 -1 -54 -26 -44 -74 16 -74 15 0 51 -9 80
-20 33 -12 78 -20 118 -20 37 -1 76 -7 90 -15 16 -9 55 -14 111 -15 81 0 88 2
114 28 26 25 27 31 21 87 -4 33 -9 77 -12 97 -9 57 2 87 39 103 28 12 34 11
56 -6 35 -28 65 -24 95 12 29 34 30 37 16 73 -9 24 -14 26 -67 26 -36 0 -75
-8 -101 -20z"/>
<path d="M25473 40856 c-28 -14 -59 -36 -69 -51 -15 -24 -16 -33 -5 -73 7 -26
13 -48 15 -49 8 -9 110 31 136 53 33 28 38 58 19 113 -13 37 -27 39 -96 7z"/>
<path d="M24297 40709 c-20 -3 -40 -9 -44 -12 -3 -4 12 -24 35 -45 49 -45 52
-68 18 -119 -30 -44 -25 -60 22 -69 44 -8 81 10 100 49 12 25 10 33 -40 115
l-53 88 -38 -7z"/>
<path d="M25350 40585 c0 -3 6 -21 14 -39 16 -38 51 -67 72 -59 8 3 30 -9 49
-26 43 -37 67 -39 89 -6 24 37 7 68 -53 93 -27 12 -53 27 -56 32 -6 10 -115
15 -115 5z"/>
<path d="M25370 40212 c-8 -3 -32 -22 -53 -43 -22 -21 -86 -69 -144 -106
l-106 -67 29 -23 c47 -37 84 -31 147 27 59 54 90 62 108 29 20 -38 -4 -92 -62
-141 -60 -51 -84 -90 -70 -116 6 -11 35 -25 70 -35 35 -10 61 -23 61 -30 0 -8
11 -24 24 -36 33 -32 63 -23 115 34 36 39 40 48 31 66 -8 14 -17 18 -28 14 -9
-3 -29 -9 -44 -12 -27 -5 -28 -4 -28 37 0 43 22 74 80 111 l25 16 -58 59 c-68
69 -75 104 -27 129 37 19 37 25 3 57 -32 29 -52 37 -73 30z"/>
</g>
</svg>
