<svg version="1" xmlns="http://www.w3.org/2000/svg" width="8906.667" height="8906.667" viewBox="0 0 6680.000000 6680.000000"><path d="M3289.3 1619.8c-1.4 2.5-2.6 3-10.5 4.5-9.2 1.8-16.4 4.8-21.5 9.1-1.6 1.4-5.2 3-7.9 3.7-9.4 2.3-13.6 6.3-19.8 18.8-4.5 8.8-8.3 13.1-11.6 13.1-1 0-3.4-.7-5.3-1.5-5.7-2.3-13.6-2.8-19-1.2-8 2.5-22.3 14.7-23.4 19.8-.7 3.7-1.1 3.9-9.8 5.4-7.7 1.4-15 5.3-16 8.6-.4 1.1-1 1.9-1.5 1.9-1.6 0-7.8 7.1-8.5 9.7-.3 1.6-1.4 3.6-2.3 4.7-1.4 1.5-1.7 3.9-1.7 12.6v10.9l-3.4 3.5c-1.9 2-5.5 4.3-8 5.3-9.8 3.6-14.1 7.9-20.7 20.6l-4.6 8.8.5 10.7.4 10.7-6 6.4c-12.7 13.7-17 23.9-15 35.5.6 3.3 1.9 7.9 2.9 10.1 1 2.2 1.9 4.5 2 5.2.5 2.6 4.8 7.5 9.7 11.2 5.4 4 9.3 7.8 8.6 8.5-.2.2-3.4 1.8-7.2 3.4-4.5 2.1-7 3.8-7.6 5.4-.6 1.6-3.8 3.8-10.2 7-5.4 2.7-13.4 7.9-18.9 12.3-5.2 4.3-11.2 8.6-13.2 9.6-4 2.1-9.8 7.2-9.8 8.8 0 .5-1.4 1.2-3.1 1.6-1.9.4-5.3 2.9-8.8 6.4-5.8 6-7.9 7.6-30.1 22.6-21.7 14.7-35.4 22.6-51.5 29.4-12.2 5.2-17 7.9-21.5 12.4-2 1.9-5.1 4.1-7 4.9-2 .8-4.8 3.1-6.3 5.1-1.5 2-4.9 5.1-7.5 6.9-6.5 4.4-5.7 3.8-15.7 12.4-4.9 4.3-16.2 14.9-25 23.5s-18.3 17.5-21.1 19.7c-2.8 2.2-7.3 6.6-10 9.8-9.1 10.6-13.9 14.9-24.6 22-10.9 7.2-21.6 10.6-33.3 10.7-11.2.1-17.9-1.8-30.5-8.5-16.5-8.8-23.6-14.2-31.5-23.9-5.6-6.9-9.9-9.5-13.9-8.5-4.6 1.1-5.8 3.3-5.1 9 .5 4 .3 5.5-.8 6.5-2.1 1.7-2.7.4-2.9-7-.2-5-.7-6.8-2.3-8.1-1.1-1-2.5-1.7-3-1.8-.6 0-5.2-4-10.3-8.9-7.8-7.5-10.1-9.1-14-10-2.5-.5-4.9-.8-5.3-.5-.9.5-1.9-2.2-1.9-5.2 0-1.4.9-6 2.1-10.4 2.4-9.5 1.9-12.1-4-20.8-2.2-3.4-6.9-11.8-10.3-18.8-3.5-6.9-6.9-12.9-7.8-13.2-.8-.3-2.9-1.6-4.6-2.9-4.1-3.1-9-4-11.2-2.1-.9.8-3.5 1.6-5.7 1.7-2.7.1-5.2 1.1-7.7 3.1-2 1.7-4.3 3-5.1 3-.8 0-2 .7-2.7 1.5-.7.8-1.8 1.5-2.4 1.5-.6 0-2.3.8-3.6 1.7-1.4 1-3 1.8-3.7 1.9-3.7.6-17.3 13.7-17.3 16.7 0 2.9 10.9 23.5 13.5 25.5 3.2 2.5 8.1 11 8.9 15.3 1 5.4 5.6 9.6 12.4 10.9 7 1.5 12.6 3.7 14.6 5.9 2.8 3-1.3 5.9-9 6.2-6 .3-10.1 1.6-10.8 3.5-.3.8-1.7 1.4-3.1 1.4-4.7 0-11 4-20.2 12.9-5.1 4.9-11.3 9.9-13.8 11.1-2.5 1.2-4.8 2.6-5.1 3.1-.3.6-3.7 2.4-7.4 4.1-8 3.5-10.3 6.3-10.2 12.5.1 3.4-.5 5-2.7 7.6-3.4 3.8-4 6.3-2.3 9.5 1 1.7 1 3.2.2 6.5-1.9 7.3-2.1 7.7-3.6 7.7-1 0-1.4 1.3-1.4 4.9v4.8l4.5.6c8.6 1.2 11 3.3 17.5 15.2 1.8 3.3 6.3 10.5 10.1 16.1 9.2 13.8 15.9 27.3 16.6 33.7.3 2.9 1.2 6.2 2 7.5l1.4 2.3 4.2-3.1c3.1-2.2 5.2-3 8.4-3 3.5 0 4.3-.3 4.3-1.9 0-2.6 1.5-3.6 9-6.2 6.9-2.3 10.7-4.5 15.5-9 2.6-2.4 9-6.2 20-11.7 7.4-3.7 24.7-14 31.5-18.7 4.2-2.8 17.6-10.3 29.8-16.5 25-12.7 27.9-14.5 26.1-16.6-.9-1.1-.7-1.4 1.4-1.4 1.5 0 6.3 2.5 11.5 6 14 9.5 25.3 11.8 35.2 7.2 3.1-1.4 18.5-11.1 31-19.5 2.4-1.6 6.7-3.6 9.4-4.4 2.7-.8 6.7-2.6 8.9-4 7.3-4.6 14.8-8.1 21.6-10.2 3.7-1.1 8.5-3.2 10.6-4.7 2.2-1.4 7.9-4.2 12.8-6 12.2-4.7 25.9-11.9 33.6-17.7 3.5-2.6 9.2-5.9 12.6-7.2 6.9-2.6 14.1-6.9 14.9-9 .2-.7 5.2-3.6 11-6.5 11-5.4 17.6-10.4 21.7-16.4 1.7-2.6 4.6-4.7 9.5-7 4-1.9 10-5.4 13.5-7.8 9-6.1 17.9-10.2 28.4-12.7 10.9-2.7 20.4-6.6 31-12.6 4.4-2.5 12.2-6.4 17.4-8.7 13.3-5.8 35.3-19.5 43.6-27.1 5.5-5 14.7-2.7 16 4 .3 1.9 3.8 13.7 7.6 26.1 3.9 12.5 7.3 25.3 7.5 28.5.5 5.9 3.7 16.2 5.5 17.2.5.4.9 2 .9 3.6 0 3.4 2.3 9.5 4.6 12 .8.9 2.8 7 4.5 13.5 3.6 14.2 6 21.4 10.5 31.3 1.9 4.1 3.7 8.7 3.9 10.2.6 3.5 1.4 5.5 6 15.3 6 13 9.6 22.7 8.8 23.9-1.2 2.2-7.8 10.2-8.5 10.5-.5.2-.8.9-.8 1.5 0 .7-1.5 2.2-3.3 3.5-9.2 6.4-30 29.9-34.2 38.5-.8 1.8-3.9 6-6.8 9.4-2.9 3.4-7.2 9.7-9.6 13.9-4.2 7.6-7.5 15.4-6.5 15.4.3 0-.9 2.6-2.5 5.7-1.7 3.2-3.7 8.7-4.5 12.3-.8 3.6-2.6 9.1-4.1 12.2-3.6 7.8-4.3 17.4-2 25.4 2.3 7.7 2.3 18.9.1 23.3-2.2 4.1-2.3 9.9-.3 13.7.8 1.6 4.2 5.5 7.6 8.7 6.1 5.9 6.2 6.2 7.6 16.1.3 2.1 1.2 5 1.9 6.5.8 1.4 2 7.5 2.6 13.6 2.6 24 8.5 47.3 20.1 79.5 3.2 8.8 4.9 15 4.9 18.1 0 2.9.7 5.5 1.8 7 1 1.3 2.3 4.6 3 7.4.7 2.7 2.1 6.1 3 7.5 1.5 2.3 4.1 10.6 4.2 13.8 0 2.2-13.6-5.8-19.7-11.5-3.1-2.9-6.1-5.3-6.7-5.4-.6 0-1.9-.2-2.9-.4s-3.2.1-5 .6c-1.8.5-6 1-9.3 1.1-10.6.2-17.6-4.5-26-17.4-5.7-8.9-7.9-11.3-13.4-14.8-9-5.8-16-6.9-33.5-5.6-9.1.7-16.2-1.8-30.5-10.4-5.7-3.5-12.8-7.3-15.6-8.6-4.7-2.1-5.4-2.8-7.2-7.6-1.1-2.9-2.3-7.6-2.6-10.3-.3-2.8-.9-7.2-1.2-10-.5-3.8-1.4-5.7-3.9-8.2-5.3-5.3-9.6-4.5-21.6 3.9-6.1 4.2-13.9 6.8-17.9 5.8-1.9-.4-2.8-1.6-3.8-5-2.6-9.1-3.5-11.3-6.5-16.6l-3.2-5.4h-23l-1.9 4.5c-2.5 6.1-7.6 10.3-19.3 15.5-22.6 10.1-36.4 23.2-43.4 41.4-1.5 3.9-3 9.1-3.4 11.6-.9 6.2-7.9 16.5-12.4 18.3-4.7 1.9-7.4 1.1-12.2-3.6-4.1-4-6.3-7.9-7.3-12.8-2.4-11.7-2.8-15.4-2.4-22.4.4-6.5 1.1-9.5 4.1-16.1 6.4-14 7-21.3 2.5-31.5l-2-4.9h-20.4l-1.3 3.6c-1.3 3.6-6.6 8.2-13.1 11.2-1.9.8-5.3 2.8-7.6 4.3-2.2 1.5-7 3.7-10.5 4.9-3.5 1.2-8.3 3-10.5 4-5 2.3-14.9 13-30.7 33.1-11.8 15-19.3 23.4-23.7 26.1-3.4 2.2-17.2 5.9-21.9 6-4.5 0-7.5-1.7-9.1-5.1-.7-1.5-1.5-8.5-1.9-15.6-.8-15.2-2.3-19.4-7.8-22-4-1.9-8.2-1.5-15.1 1.6-9.2 4-13.6 9.4-18.4 22.6-1.7 4.8-4 10.3-5.1 12-2.7 4.6-11.2 10.6-14.8 10.5-3.3-.1-16.9-7.2-27.6-14.4-11.2-7.5-19.4-15.8-27.9-28.2-7.7-11.3-11.2-14.6-15.3-14.6-3.4 0-10.1 7-18.4 19.2-11.5 17-11.1 16.6-19.9 16-4-.2-8.5-1.1-10-1.8-1.5-.8-5.7-1.4-9.6-1.4-5.1 0-7.3-.4-8.3-1.6-.7-.8-3.6-2.7-6.3-4.2-4.3-2.2-6.4-2.6-13.1-2.5-6.8 0-9.4.6-17.5 3.8-5.2 2-12.4 4.1-16 4.5-8 1-14.3 3.5-23.7 9.3-13.2 8.1-20.8 8.5-33.9 2-5.3-2.6-8.9-5.2-11.7-8.5-4.5-5.4-6-6.1-13.7-6.3-4.1-.1-7.4-1-13-3.8-10.1-4.9-18.8-6.8-28.8-6.3-7.8.4-16.5 2.6-20.7 5.2-1.1.6-3.6 1.5-5.5 1.9-6.7 1.3-19.4 6-24.4 9-3.9 2.3-6 4.6-9.1 10-4.7 7.9-10.3 17.9-11.9 21.2-.8 1.5-2.9 2.7-7.1 3.8-13.4 3.6-18.7 5.9-26.6 11.1-4.5 3-10 6.4-12.1 7.5-4.3 2.2-6.8 6.6-6.8 12.1 0 6.7 3.8 9.5 16.5 12.3 22.9 4.9 41.3 12.9 70 30.4 11.5 7 15.8 10.3 24 18.6 5.5 5.5 12.1 11.2 14.8 12.5 2.6 1.4 4.7 3 4.7 3.6 0 4.3 6.9 11.4 11 11.4.9 0 3.5 2 5.9 4.4l4.4 4.5-3.4-.5c-7.1-1-12.7-3.6-19.4-8.9-3.8-3-7.3-5.6-7.9-5.6-.6-.1-4-.3-7.6-.4-5.7-.2-7.3.2-13.2 3.3-14.8 7.6-25.1 20.8-21.6 27.6.6 1.2 3.4 4.6 6.3 7.6 2.8 3 5.7 6.4 6.3 7.6 1.1 2 .9 2.1-6.3 2.7-13.1 1-24.5 9.1-31.4 22.3-3.8 7.4-5.1 9-8.6 10.8-2 1.1-3.4 1.2-5.7.4-1.6-.6-11-9-21.1-19-10-9.9-19.8-18.8-21.7-19.8-4.9-2.5-11.5-1.8-25.3 2.6-9 2.9-12 3.5-16 3-5.4-.6-5.7-.8-19.3-12.9-12.4-11-18.7-13.7-32.5-13.7-8.4 0-9-.1-12.3-3-2.3-2.1-4.4-5.6-6.6-11.3-5.4-13.5-8.9-19.3-13.3-21.7-3.5-2-4.8-2.2-12.6-1.6-4.7.3-10.1.8-11.8 1.1-2 .4-4 .1-5.2-.7-3.9-2.7-16.9-14.6-24.8-22.4-7.1-7.2-8.7-8.3-12.6-8.9-5.7-.9-9.3-.1-19.2 4.3-19.3 8.5-26.2 8.1-36.7-2.2-2.7-2.5-5.7-4.6-6.8-4.6-1.1 0-4.6 2.4-7.8 5.2-9.8 8.9-10.6 11.2-5.8 17.2 6.9 8.7 7.2 15.5 1.2 27.5-4.2 8.3-4.4 11.5-1.2 17.9 7 14.1 3.6 20.5-16.4 30.4-14.4 7.1-20.5 8.7-35.6 9.2-21.7.6-27.2 5.6-29.4 27.1-1.4 13.5-4.7 17.4-15.6 18.3-9 .7-16.3-2.3-24.4-10.1-7-6.6-13.3-8.1-19.9-4.7-5.9 3-23.7 21-24.6 24.8-.8 4 1.2 8.5 7 15.2 12.7 14.6 12.5 24.9-.8 41.5-9 11.1-8.7 16 1.4 25.6 3.6 3.6 5.9 6.6 5.9 7.9 0 15-39.7 35.6-53.9 28.1-4-2.2-14.8-4.2-29.6-5.6-3.3-.3-8.4-.8-11.2-1.1-8.5-1-11.9.1-15 4.6-2.4 3.7-2.9 4-7.2 4-2.5.1-7.3.7-10.6 1.5-10.1 2.4-13.5 2-23.4-3-22.9-11.6-35.2-9.9-53.3 7.4-10.9 10.4-12.1 14-6.6 20.1 16.6 18.1 17.1 28.8 2.6 48.7-6.3 8.6-6.1 11.3 1 20 4 4.9 6.2 10.6 5.5 14.2-1.5 8.3-9.8 17.5-20.1 22.4l-6.7 3.2-21.7.3-21.8.4-7.2-7.7c-18.4-19.6-24.4-32.4-22.7-48.9.4-3.8.4-7.8-.1-9-1-2.5-4.7-6.6-6-6.6-.5 0-1.2-.9-1.5-2.1-1-2.9-6.7-5.1-11.9-4.4-12.1 1.4-19.9 8.7-24.6 23-3 9.2-5.2 13.4-8.8 16.8-2.7 2.6-3.5 2.8-9.3 2.5-5.5-.3-6.4-.6-6.7-2.3-.2-1.1-3.4-8.5-7.2-16.5-3.9-8.5-7.3-17.2-8-21-.7-3.6-2.3-8.4-3.6-10.6-2.4-4.3-4.4-5.4-12.8-7.4-7.6-1.7-16.6-8.6-23.1-17.5-6.1-8.4-13.6-17.4-16.3-19.7l-3.2-2.6-.5-13.5c-.7-19.4-2.8-28.7-8.7-38.3-5.4-9-12.2-11.7-20-8-1.9.9-8.3 5.5-14.1 10.1-16.7 13.3-24.9 16.6-35 14.5-10.1-2.1-22.6-12.7-32.5-27.7-2.8-4.3-5.8-8.8-6.6-9.9-2.4-3.5-10.1-6.7-14.3-6.1-7.5 1.3-9.4 4.2-10.8 17.2-.4 3.2-.8 6.2-1 6.5-.1.3-.6 2.7-.9 5.4-2.9 21.4-8.9 37.6-18.9 50.9-5.2 6.8-7.8 8.4-11.7 7.2-4.3-1.4-4.9-4-5.3-23.5-.4-22.1-1.6-26.9-8.8-34.1-9.5-9.6-28-12.2-45.9-6.4-11.6 3.7-26.8 11.7-33.5 17.7-14.9 13.3-23 42.8-18 66 .7 3.7 4.4 13.4 8.1 21.5 6.1 13.5 10.4 26.1 12.1 35.3 1 5.9.7 24.2-.7 30.5-2.1 10.3-4.3 14.1-9.2 15.7-5.4 1.8-7.4 1.3-8.2-1.7-.7-2.8-.9-50.5-.2-52.6.3-.8.7-3.2 1.1-5.4.3-2.2.9-5.8 1.3-8 1.1-5.3-.2-9.9-3.4-12.4-2.4-1.9-4.1-2.1-14.9-2.1-28.2 0-36.2-5-41.5-25.6-2.1-8-2.1-20.4 0-27.4 2.4-8.4.6-17.4-4.6-21.9-4-3.6-8.6-4.1-12.1-1.3-1.2.9-6.3 7.1-11.4 13.7-5 6.6-9.5 12.2-9.9 12.5-.3.3-5.8 7.2-12.2 15.5-10.8 14-18.8 25.8-25.1 36.6-3.7 6.4-8.8 8.7-15.2 6.9-5-1.4-6.1-2.4-6.3-6.1-.1-1.4-1-6.2-2.1-10.7-2-8.5-1.8-12 1.1-17.7 3.8-7.2 5.8-16.6 5.8-26.6 0-11.3-1-16.8-5.1-29.3-3.8-11.2-5.3-14.2-9.4-18.2-9.6-9.3-25.8-6-33.3 6.6-8.1 13.8-8.6 32.6-1.2 48.5 4.1 8.6 4.5 11.1 2.6 14-2.3 3.4-8.4 4.8-18 4.1-4.3-.4-8.1-.8-8.5-1-.3-.3-2.4-.7-4.6-1-4.6-.7-23.4-5.3-34.5-8.5-15.5-4.4-27.5-3.8-38.7 1.6-8.1 4-14 9.8-22.4 22-4.1 5.9-9.3 12.9-11.7 15.6-4.7 5.3-5.1 7.5-2.2 12.2 2.5 4.1 7.6 25 9.4 38.7 2.7 20.3-.6 40.9-7.9 48.9-3.7 4.2-6.5 9-6.5 11.4 0 .9-.9 1.5-2.2 1.6-1.3 0-4.1.2-6.3.4s-5.7-.1-7.7-.6c-6.2-1.6-8.2-6.2-9.3-20.7-1.4-20.9-12.8-31.3-27-24.8-11.1 5.1-18.5 16.1-19.3 28.6-.5 8.6.5 11.9 6.8 21.5 5.1 8 7.4 16.2 6.6 23.4-1.2 10.4-2.4 12.5-12.3 22.6-11.1 11.5-15.9 17.8-20 26.6-3.1 6.5-8.9 12.8-12.1 13.1-.9 0-6.2.1-11.7.2-8.6.1-10.6.4-14 2.4-6.9 4.1-9.3 9.2-9.4 19.7-.1 8.1-1.6 11-6 12-3.1.7-6.1 4.2-6.1 7.3 0 5.2-18.6 32.9-35.1 52.2-3.9 4.6-5.1 7-6.9 14-4 15-6.6 18.5-22.2 30-4.4 3.3-10.8 12.3-10.8 15.2 0 4-2.2 8.6-4.7 9.7-9.8 4.5-25 18.1-40.8 36.6-3.3 3.8-11.5 12.5-18.2 19.2-17 17-24.5 28.8-28.3 44.3-4 16.3-11.8 28-25.5 38.2-11.9 8.9-15 12.4-15.9 17.6-.7 4.9-6 11.3-11.5 14.2-4 2-4 2-7.7 2-1.5 0-3.7 1.2-5.3 2.8-1.5 1.5-4.8 4-7.2 5.6-2.4 1.6-5.4 4.1-6.7 5.5-3 3.5-7.4 13-10 21.7-1.4 4.7-4.3 10.2-8.5 16.5-4 5.9-7.7 13.1-10.1 19.4-14.7 39.1-15.4 40.5-21.8 46-4.8 4-9.6 5.9-19.4 7.5-18.6 3-28.3 15.9-29.8 39.5-.4 4.9-.8 10.1-1 11.5-.3 1.4-1.2 7.9-2.1 14.5-1 6.6-1.9 12.9-2.1 14-.2 1.1-1.1 6.9-1.9 13-.9 6-1.8 12.3-2 14-.3 1.6-.7 9.1-1.1 16.5-.3 7.4-1.2 15.7-1.9 18.5-.8 2.7-1.6 6.8-1.9 9-2.3 17.1-5.1 24.4-11.4 29.3-4.1 3.3-5.6 6.3-6.7 13.7-1.7 10.6-6.2 13.5-15.9 10.1-7.4-2.6-12.6-.4-17.5 7.2-5 7.8-7.1 13.9-11.1 31.7-4.2 18.6-6 24.6-9.6 31.7-2.7 5.3-10.1 13.3-13.3 14.3-2.5.8-2.3-1.7-2.5 25.3l-.1 22.3 3 1.9c10 6.2 14 16.6 11 28.2-.9 3.5-2.5 11-3.6 16.8-2.3 11.5-3.6 15.3-7.9 22-3.6 5.8-3.5 11.8.5 15.3 1.8 1.5 3 3.8 3.6 7.1 1.3 6.9 5.1 14.7 9.2 19 3.8 3.9 14.1 9.2 19.7 10.2 25.5 4.4 44.4 12.4 63 26.5 9.4 7.1 12.9 8.9 17.5 8.9 5 0 8.3-2 13.8-8.3 7.3-8.5 12.2-9.5 18.6-4.2 5.2 4.4 6.1 4.1 19.8-6.2 18.6-14 28.6-17.8 36.1-13.9 6.1 3.2 10 15.6 6.9 21.9-8 16.2-14.4 30.4-18.7 42.2-3.8 10.1-6 14.7-8.1 16.5-3.5 3.1-4.5 5.9-4.8 12.8-.2 6.4-1.1 8.8-4.4 12.3-7.9 8.2-11.3 19.2-11.6 37.1-.1 6.5-.4 12.9-.7 14.4-.3 1.5-3.3 9.2-6.8 17.3-14.5 33.5-24.3 64.4-30 94.9-5.3 28.2-4 38.2 9.8 75.6 5.9 15.7 7.2 18.3 13.1 26 3.6 4.7 8.3 9.9 10.3 11.6 5 4.1 12.6 6.8 21.4 7.5 25.4 2 34.1 6 35.5 16.4.7 5.1-2 13.9-7 23.1-6.2 11.3-6.8 12.7-8.3 18.3-3.1 11.8-.8 20.9 6.9 27 10.8 8.6 18.4 10.7 38.4 10.6 19.5-.1 22 1.2 25.3 12.1 2.2 7.3 7.7 16.4 13.5 22.3 5.2 5.3 13.4 11.7 15 11.7.8 0 2 .8 2.7 1.8 2.1 2.9 7.1 6 10.9 6.7 2.6.5 6.7 3.4 14.5 10.1 6 5.3 13.4 10.8 16.4 12.3 8.4 4.4 16.3 10.7 29 23 19.6 19.1 30.6 24.7 55.4 28.5 2.1.4 4.8.8 6 1.1 1.2.3 4.1.7 6.6 1 2.5.3 9.2 1.2 15 1.9 7 1 17.8 1.4 32.3 1.2 23.9-.3 25.7.1 25.7 5.3 0 3.5-2 5.3-10.1 9-10.4 4.7-16.1 11.5-17.2 20.5-.6 4.8 1.2 13.7 3.4 16.7 4.3 6.1 7 7.1 19.7 7.6 16.9.6 27.9 4.2 33.1 10.9 2.7 3.5 2.6 6.4-.4 12.4-5.5 10.9-1.9 18.3 13.9 28.4 13.5 8.6 25.7 13.1 38.6 14.1 15.4 1.2 23.9 6 25.5 14.3 1.1 5.7 3.4 9.2 6.8 10.7 1.8.7 8.6 2.5 15.2 4.1 9.7 2.2 14.5 2.7 25.5 2.8 21.2.1 29.5-1.5 33.6-6.6 1-1.3 3.5-3 5.4-3.8 1.9-.7 6.4-3.4 10-5.9 7.4-5.2 10.8-7.2 23.5-13.7 22.8-11.8 39.6-14.9 56.8-10.5 10.2 2.7 12.5 4 20.3 11.9 6.8 6.9 9.6 11.3 10.9 16.9 1.3 6.4 5.5 8.2 25.5 11.3 28.1 4.4 43.2 4.5 59.5.4 9.2-2.3 23.3-9.6 30.5-15.8 12.8-11 18.4-15 23.9-17.2 6.8-2.8 11.3-2.9 21.1-.4 6.7 1.7 10 1.9 30 1.4 20.6-.5 34.1-.5 46 0 4.8.2 17-1.6 23.5-3.5 2.2-.6 19.8-7.3 39-14.9 51-20.1 70.4-26.1 94.5-29.4 13.9-1.9 39.5-1.5 51.5.9 21.6 4.2 35.5-.8 47.2-16.9 5.8-7.9 6.5-8.6 11.1-11.3 6-3.5 12.9-3.5 20.1.1 6.5 3.3 9.4 3.5 14.7.8 6-3 13-4.1 18.9-2.7 2.8.6 14.5 5.5 26.1 10.8 24.7 11.3 32.6 13.7 44.2 13.7 8.6 0 12.2 1 12.2 3.5 0 .8-2 3.7-4.5 6.5-2.8 3.1-4.5 6-4.5 7.6 0 1.4 1.7 4.8 3.9 7.7 4.7 6.4 6 10 5.4 15.7-.5 4.9-4.5 11.1-10.8 16.8-6.1 5.6-6.8 11.2-1.8 15.2 1.9 1.5 4 1.9 9.4 1.9 7.7 0 15 2.7 21.7 8 7.2 5.7 16.7 9.5 21.7 8.7 1.1-.2 3.8.9 6 2.4 2.8 2 5.9 3 10 3.5 8.4.9 20 3.9 33.5 8.7 55 19.3 73.4 21 95.6 8.8 9.1-5 13.1-5.9 30-6.5 18.6-.7 17-2 22.9 19.3 2.9 10.9 5.2 14.4 10.9 16.7 17.2 7.3 22.1 10.3 30 18.1 10.6 10.6 17.5 23.7 25.6 48.9 5.8 17.7 11.7 30.5 18.4 40 9.7 13.4 27.6 26.6 36.6 26.7 5.1.1 7.2-1.8 10-8.8 2.7-6.6 5.3-8.2 13-7.9 9.8.4 14 1.4 22.8 5.3 12.5 5.6 42.1 14.1 49 14.2 1.8 0 4.3.6 5.5 1.4 1.2.8 3.6 1.7 5.2 2 7.1 1.3 8.6 1.9 10.5 4.3 2.5 3.2 2.5 5.4-.2 15.6-6.1 23.3 1.7 42 19.9 47.7 4.4 1.4 8 1.7 14.8 1.4 5-.2 14.9-.6 22-.8 7.2-.2 18.2-.7 24.5-1 6.3-.2 14-.1 17 .5 20.6 3.5 38.8 3 56-1.6 12.1-3.2 21.3-3.4 30.9-.5 8.8 2.7 12.9 2.2 16.5-2.1 1.4-1.7 2.6-3.6 2.6-4.3 0-2.3 4-6.5 8.7-9.3 5.8-3.4 13.3-4.9 20.8-4.3 8.1.7 12.5-.4 15.5-3.7 6.5-7.2 21.7-16.5 33-20.3 9.1-3.1 22-3.1 31.5-.1 13.5 4.4 20.5 8.4 29.4 17 4.7 4.4 10.1 8.8 12 9.7 2 .9 4.9 2.8 6.5 4.1 7.6 6.4 12.8 6.9 66.6 6.7 42.6-.1 62.2-.9 76-2.9 1.9-.2 5.5-.7 8-1 2.5-.4 7.7-1.3 11.5-2.1 3.9-.9 8.4-1.8 10-2.1 11.3-2 39.7-13.4 51-20.6 4.9-3.1 23.5-16.6 24.5-17.7 1.2-1.4 18-13.8 24.1-17.7 6.8-4.4 12.6-6.7 33.9-13.3 20.5-6.3 45.3-11.7 61.5-13.4 2.8-.3 7-.8 9.5-1 2.5-.3 9-.8 14.5-1.1 5.5-.3 11.1-.8 12.5-1 1.4-.2 5.9-.6 10-1 6.6-.5 17.2-1.7 26.5-3 1.7-.2 5.7-.7 9-1.1 3.3-.3 6.7-.8 7.6-.9.9-.2 4-.6 6.9-1 2.9-.4 6-.8 6.9-1 1.4-.2 4.2-.7 13.1-2 4.4-.7 37.4-6.4 40-7 2.1-.4 10.7-1.9 36-6 6.7-1.1 29.5-1.3 37-.4 4.1.5 12.7 2.3 19 3.9 6.3 1.6 13.1 3.1 15 3.4 1.9.4 5.3 1 7.5 1.6 6.4 1.5 26.1 4.1 43.5 5.6 3.6.3 42.1.8 85.5 1 101 .5 137.3 1 141 1.9 3.8.9 25.5 1 31.5.2 36.3-5 54.4-7 67.5-7.2 16.3-.3 28.2 1.1 33 3.7 2.8 1.5 5.5 2.1 14.7 3.3 10 1.3 22.5 1.7 61.8 1.7 41.8 0 43.7-.1 49.1-2.1 5.1-1.9 9.5-5.5 14.6-11.8l1.8-2.2 5.5 1.9c14.6 5.3 34.1 6.3 58.5 3.1 11.2-1.5 19-1.8 39-1.6 13.8.2 26.1.5 27.5.8 1.4.3 5.5.8 9.2 1.1 7.5.7 7.2.6 29.8 4.1 18.2 2.8 20.6 3.2 26.7 4.5 7.5 1.7 14.7 2.4 22.8 2.4 6.4-.1 9.3-.7 14.5-2.9 3.6-1.6 7.9-2.8 9.5-2.7 1.7 0 10.2.3 19 .5 18.7.5 29.9-1 48-6.7 6.2-2 13.4-3.6 15.9-3.6s12.2 1.6 21.5 3.5c9.3 2 18.5 3.8 20.3 4.1 8.1 1.2 23.9 1.2 31.3-.1 4.4-.8 14.3-1.5 22-1.7 13.6-.4 14.2-.5 20.8-3.8 7.6-3.7 7-3.6 15.2-2.1 21.1 3.8 39.3 5.1 80 5.6 30.7.4 37.5 1.4 49.5 7.1 9.9 4.7 16.4 5.4 22.2 2.4 2.4-1.2 5.3-3.1 6.5-4.2 2.3-2.1 7.2-3.2 13.8-3 38.3 1.1 42.4 1.1 50-.3 12.5-2.3 17.9-4.2 34.2-12.2 17.9-8.7 23.8-10.2 34.6-8.5 3.9.6 12.9 3.4 19.9 6.1 13.8 5.4 22.2 7.4 28.3 6.6 3-.4 5.2.1 8.9 2 5.6 2.9 8.8 3.1 14.8 1.1 18.6-6.3 40.3-6.2 61.2.3 9.7 3 21.7 5 33.2 5.6 6.2.3 14 1.5 20 3.1 5.5 1.4 12.4 3.2 15.4 4 6.4 1.7 17.6 2.8 27.5 2.8 8.4-.1 34.2-1.4 37-1.9 1.1-.2 6.3-.7 11.5-1 5.2-.3 11.5-.8 14-1 20.4-1.9 35.7-2.7 55.1-2.9 11-.2 18.2-.7 19.6-1.4 1.2-.7 7-1.4 13-1.6 6.2-.2 12.6-1.1 15-1.9 2.2-.9 4.3-1.4 4.5-1.2.1.2 4.6.6 9.8 1 5.2.4 10.3.9 11.3 1.1 3.1.6 30.7 1.7 42.2 1.7 23.1.1 48.5-2.6 64.1-6.8 9.4-2.6 18.8-2.7 27.4-.4 14.6 3.9 27.7 4.2 56.5 1.4 2.2-.2 6.9-.7 10.5-1 7.3-.8 26.4-.8 32.5-.1 2.2.2 8.5.7 14 1.1 5.5.3 11.1.8 12.5 1 1.4.2 7.2.9 13 1.5s12.1 1.3 14 1.5c9.5 1.2 24.5 1.9 43.5 1.9 20.3.1 21.1.2 24.8 2.5 5.2 3.2 11.8 2.6 21.7-2.1 16.5-7.8 26.8-9.6 37.8-6.6 3.7 1 7.2 1.9 7.8 2.1.6.1 2.3 1.1 3.9 2.1 4 2.6 8.6 3.8 10.1 2.5 2.6-2.1 13.3-3.5 20.2-2.6 3.7.5 13.9 1 22.7 1.1 19 .3 20.3.6 32 5.9 8.1 3.7 9.8 4.1 17 4.1 7.2 0 8.6-.3 14-3.2 3.3-1.8 7.7-4.8 9.7-6.6 4.3-4 11.2-5.8 21.3-5.7 11.4.1 14.3.7 42.5 9.1 16.5 4.9 27.2 4.6 38-1 6.6-3.4 16-3.6 22-.5 9.6 5 16 5.2 28.3 1.1 4.3-1.4 8.6-2.6 9.7-2.6 5.4 0 9.8-3.2 16-11.6 9.1-12.4 10.6-12.8 18.3-5.4 9.5 9.3 17.6 9.6 25.8 1.2 6.2-6.3 12-9.1 30.3-14.7 25.4-7.8 29.3-10.4 49.6-32 3-3.3 6.9-5.9 12-8.2 14.9-6.8 22.2-14.6 25.6-27.3 1-3.6 2.1-6.9 2.4-7.3.4-.5 5.5-3 11.4-5.7 11.7-5.3 17.6-9.2 21.1-14 2.9-4 9-7.9 23.9-15.2 13.1-6.5 18.9-7.8 26-5.8 3.9 1.1 4.8 1.9 7.5 7 1.7 3.2 4.2 10.1 5.6 15.5 3 11.6 4.9 16.2 7.7 19.2 3.6 3.9 8.4 2.5 15-4.4 5.8-6.1 7.6-10.6 8.3-20.8.3-5 .7-10.8 1-13 .5-4.8 1.8-29.1 1.7-32 0-1.1 1.8-5.8 4.1-10.5 5.7-11.5 6.8-12 19-8.4 18.5 5.5 36.3 3.5 56.2-6.3 16.9-8.3 35.2-18.9 48.4-28.1 3.6-2.5 13.1-9.1 21.1-14.7 15.7-11 24.6-16.5 38.2-23.9 13.2-7.2 15.7-11.7 16.2-29.8.3-10.5.7-13.1 2.8-17.8 10.4-22.7 20.8-58.8 23.2-80.3.5-5.2.7-5.6 4.7-10.7 1.5-1.9 5.8-9.4 9.5-16.5 7.5-14.5 10.5-19.2 15.9-24.8 4.5-4.7 7.2-5.9 20-8.7 8.7-1.9 11.7-2.1 23.7-1.5 12.5.6 13.9.5 17.6-1.4 2.3-1.1 5.2-3.1 6.5-4.3 2.5-2.4 6.7-9.4 6.7-11.4 0-1.7 3.2-4.2 7.1-5.6 5.4-1.8 23.9-14.8 23.9-16.7 0-2.2-1.6-4-6.5-7.6-9.3-6.8-20.3-17.9-22.2-22.4-1.8-4.3-1-11 1.8-14.5 3.5-4.5 7.2-5.7 18.7-6.2 16.6-.7 27.5-4.7 42.2-15.9 3-2.3 8.7-6.5 12.7-9.4 13.6-9.9 25.2-24.2 35.6-43.9 2.8-5.4 6.2-10.8 7.4-12.2 7.1-7.6 8.5-14.4 4.1-20.2-1.4-1.9-3.3-5-4.1-6.9-1.7-4.1-6.8-8.7-10.5-9.4-7.8-1.6-10-5.3-5.9-10 2.3-2.7 2.4-2.8 16.8-3 21.5-.4 32.7-3.6 38.3-11 3.2-4.1 6.1-13.8 6.5-21 .3-7.3-2.4-9.4-16.4-13-6-1.5-14.5-4.2-19-6-12.3-5.1-31.8-14.4-34-16.5-5-4.5-17.3-9.1-28.5-10.6-8.4-1.2-12-4.2-12-10.4 0-4.2 2.3-7.9 6.8-11.1 5.1-3.6 9.2-4.8 19.7-5.9 20.6-2.2 33.6-7.8 45.1-19.7 11.5-11.8 16.3-27.6 11.2-37.3-4.7-9.1-12.8-10.1-50.6-5.9-11.2 1.2-12.5.6-14.2-7.4-.6-2.9-1.3-6.1-1.6-7.2-.4-1.5 1.3-3.9 6.8-9.5 4.1-4.1 9.2-9.8 11.3-12.5 11.4-14.4 19.9-17.4 33.2-12 12.9 5.2 17.7 3.7 27.9-8.6 13.1-15.8 26.9-21.4 49.1-20.1 18.5 1.2 49.7.6 56.3-1 10.5-2.5 23.4-7.6 25.2-9.9 1.6-1.8 1.6-2.4.4-5.4-.8-1.9-3.2-5.8-5.4-8.7-2.1-2.9-4.7-6.9-5.7-8.8-4.4-8.6-17.3-26.8-23.1-32.6-3.8-3.8-8.9-7.5-12.8-9.4-6.3-3.1-6.4-3.3-5.4-6 1.9-5.5 1.6-5.5 36.4-6l32.4-.5 4.2-4.2c2.4-2.3 6.6-6.3 9.5-8.8 2.8-2.5 9.3-10 14.4-16.6 10-13.1 13-15.3 23.1-17.4 9.6-2 25.7-.3 36.6 4 5.9 2.3 24 6.5 31.7 7.2 39 4 76.9-8 100.3-31.9 3.4-3.5 7.8-8.6 9.7-11.2 4.1-5.8 10.9-18.9 12.3-23.6 5.9-20.1 6.7-24.1 11.2-54.6 3.2-21.7 3.7-24 6.1-28 1.6-2.6 1.8-4.5 1.4-11.7-.8-15.3 2.1-21.6 21.3-46.8 17.1-22.4 18.5-24.9 17.8-31.2-1-9.5-16.7-28.1-29.5-35-12.8-6.9-17.9-7.6-54.9-7.8-18-.1-35.8-.5-39.7-.9-3.8-.5-8.9-1.1-11.1-1.3-6.2-.7-11.3-4-11.4-7.4 0-.6 2.3-3.4 5.1-6.2 5.6-5.5 12.6-9.3 26.5-14.2 13.1-4.6 20.8-8.6 26.6-14l5.1-4.7 4.6 1.4c9.2 2.8 15.5 1.2 25.9-6.3 3.6-2.7 8.3-6.1 10.6-7.7 2.2-1.6 4.6-3.6 5.3-4.5 3.3-4.6 1.5-17-3.2-21.7-2.8-2.8-7.2-3.1-13.6-.9-5.5 2-16 4.5-22.4 5.3-8.7 1.2-67.6.6-72.2-.7-5.9-1.6-9.8-5.3-11.1-10.2-1.8-7.1-3.7-6.2 25.8-12.2 15.5-3.2 19.9-3.6 42.5-4.2 28.4-.6 32.5-2.2 39.1-14.9 3.1-5.9 12.9-30.6 15.5-39.1 4.7-15.1 1.3-19.8-14-19.4-6.5.2-9.7.6-17.6 2.3-4 .8-33.4 2-47.5 2-21.3-.1-33.1-2.6-48.6-10-17.1-8.2-22.6-8.3-31.3-.5-4 3.6-4.2 3.6-12.1 1.4-7.8-2.1-12.5-.8-18.6 5.2-7.6 7.7-11.8 8.6-19.6 4.7-11.7-6-17.2-6.4-28.3-2.2-6.7 2.5-16.8 3.4-23.6 1.9-11.9-2.5-25.1-7.4-28.8-10.6-6.8-5.7-12.5-17-13.8-27.1-.7-5.8.2-8.6 3.2-10 4.1-1.9 6.9-1.5 16.8 2.5 8.4 3.3 10.1 3.7 19.2 3.7 10.8 0 15.2-1.1 29-7.5l7-3.2 24-.3c20.9-.3 25.2-.1 32.9 1.6 5 1.1 10.7 2 12.7 2 11 0 16.8-7.2 20.4-25 4.8-24.8 12.4-34.3 30.7-38.5 9.5-2.1 26.1-4.3 37.8-5 24.3-1.3 30.2-3 35-10.2 5.3-8 12-13.2 24.5-19.4 13.7-6.6 15.4-8.5 13.5-14.5-1.4-4.1-3.1-5.1-10.1-5.9-2.9-.4-5.6-.8-5.9-1-.3-.1-3.9-.6-8-1s-8.2-.8-9-1c-.8-.2-4.8-.6-8.8-1-18.9-1.8-35.9-7.3-46.6-14.9-3.4-2.4-12-10.2-19.3-17.4-7.2-7.1-15.2-14.5-17.7-16.3-5-3.5-5.1-3.7-3.6-9.1 1.5-5.2 5.7-8.3 14-10.3 11.5-2.8 15-7.3 15-19.1 0-7.8-2.7-14.9-7.1-18.9-3.6-3.2-6.1-4.2-21.4-8.4-2.2-.6-5.3-2.2-7-3.5-2.5-2-3-3.1-3-6.9 0-7.5 5.7-11.7 16.1-11.7 6.1 0 8.7-2.5 8.9-8.6.4-8.1-1.7-11.2-11-16-9.4-4.8-14-10.4-15-18.2-2.3-16.4-7.7-23.4-18.4-23.4-2.5-.1-8.4.8-13.1 1.8-7.6 1.7-12.3 1.9-45.9 1.7-35.2-.3-37.6-.4-39.5-2.2-1.2-1-5.6-3.1-9.8-4.5-12.9-4.4-21.5-10.2-25-17-3-5.7-2.8-15.3.5-27.6 1.4-5.2 2.8-11.5 3.1-14 1.1-9.2-2.7-16.5-9.8-18.7-5.3-1.6-17.7-1.5-26.2.3-4.3.9-11.8 1.7-16.6 1.8-7.3.1-9.1-.2-11.5-2-4.3-3.1-6.2-8.3-6.9-18.1-1.3-18.1-6.5-21.5-25.4-16.7-1.4.3-12.3.7-24.3.7l-21.8.2-5.3-5.1c-11.1-10.8-22.5-11.8-47.6-4.5-14.8 4.3-30.2 7.6-39.5 8.6-3.3.4-7.6.8-9.5 1.1-3.6.4-22.9.4-31 0-8.7-.5-16.8 2.3-23 7.9-1.9 1.7-4.3 2.5-9.3 3-8.4.8-13.7 2.3-25.2 7.1-8 3.3-10 3.7-18 3.8-7.9.1-9.7-.2-14.5-2.6-5-2.5-6.4-2.8-16.5-2.7-11.6.2-18.5-.3-38.1-2.7-16-1.9-20.8-2.3-33.9-2.9-12.2-.5-19.8-1.2-29.5-2.6-8.5-1.1-22.4-1.1-27.7.1-4 .9-4.5.8-9.9-3-4.4-3.1-10.4-5.4-27.8-11.1-30.2-9.7-40.1-13.7-61.1-24.4-9.9-5.1-25-12.9-33.5-17.2-10-5.1-17.9-9.9-22.1-13.4-18.7-15.9-34.1-23.3-63.1-30.3-10.1-2.5-28.3-7.8-40.6-12-25.3-8.4-36.6-11.3-46.7-11.9-7.9-.4-19 1.2-25 3.7-7.9 3.4-16.8 1.8-21.2-3.7-3.4-4.2-17.5-15.9-21-17.3-6.6-2.8-12.5-2.6-26.6.7-14.5 3.4-25.1 4.4-29.9 2.7-1.7-.6-7.4-4-12.7-7.6-18.4-12.6-44.3-22.8-65.1-25.8-1.9-.3-6-.9-9-1.5-3-.5-11.8-1.2-19.5-1.4-23.8-.9-28.9-1.3-32.6-2.9-4.7-1.9-8.3-6.2-10.4-12.3-5.1-14.8-6.5-15.7-24.6-15.9-7.7-.1-14.8-.5-15.7-.9-3-1.1-27.6-1.5-32.5-.4-4.1.9-5.3.8-9.1-1-4.7-2.3-20-5.5-33.6-6.9-8.8-1-42.9-.9-49 .1-1.9.4-6.4.9-10 1.1-6.4.6-10.7 1-19.2 2.2-6 .7-10.1 1.2-19.3 1.9-4.4.4-8.9.9-10 1.1-1 .2-7.6.7-14.5 1-12.1.6-13.1.5-20.8-2.1-16.3-5.5-26.9-2.3-45.2 13.5-13 11.3-17.3 14.2-26.3 17.6-12.3 4.7-19.3 9.8-24 17.4-1.1 1.9-2.5 3.8-3 4.1-.5.3-12 .5-25.7.4-26.8-.2-24.7.2-36.2-6.3-14.3-8.1-29.4-8.6-52.8-1.8-6.9 2-14 2-21 0-8.9-2.5-34.8-3-51.5-.9-35.1 4.2-42.8 8.6-50.6 29.2-.5 1.3-1.6 2.3-2.6 2.3-3.7-.1-10-3.9-14.8-8.9-2.7-2.9-6.7-7-8.7-9.1-12.8-13.4-28.5-21.2-43.8-21.9-3.9-.1-6.8-1-9.9-2.9-4.6-2.8-5.7-4.5-13.2-20.4-5.8-12.4-7-13-24.1-12.6l-13.3.3-5-3.5c-6.4-4.5-10.6-8.7-18-17.9-6.3-7.8-11.7-11.3-16.4-10.5-1.4.2-8.2 3.2-14.9 6.6-14.4 7.1-19.6 8.1-25.8 5-2.2-1.1-5.2-3.3-6.8-4.8-7-7-11.5-8-16.7-3.7-4 3.4-6.1 8.2-5.3 12.2.4 1.7 2.8 5.6 5.5 8.6 2.7 3.1 4.9 6.4 4.9 7.4 0 4.8-10.1 16-18.2 20.2-5.4 2.8-5.7 2.9-14.8 3.6-6.1.4-9.9-.1-20.4-2.5-13.4-3.1-17.3-3.3-21.1-.8-4.1 2.7-14.5 16.5-13.8 18.4.3.9 2.7 3.9 5.4 6.7 8.3 8.6 8.2 11.8-.6 23.6-3 4.1-6.6 9.9-8.1 12.8-2.7 5.9-4.8 8-7.7 8.1-3.1 0-9.2-3.7-10.7-6.5-2.2-4.1-6.8-7.5-10.1-7.5-2.1 0-4.3 1.2-7.7 4.4-2.6 2.5-5.9 4.7-7.3 5.1-2.9.7-3 .6-24.2-21.8-15.8-16.7-18.3-18.2-24.5-14.8-14.3 7.7-13.6 7.5-29.6 7.9l-14.8.4-4.2-4.6c-5.2-5.6-7.2-5.8-19.8-1.6-18.6 6.3-36.6 7.6-59.3 4.6-14.6-2-18.2-2.9-22.6-5.9-3.8-2.6-7.7-7.9-8.5-11.6-3.1-15.4-14.1-21.7-27.9-16-5 2.1-6 2.2-10.2 1.1-4.8-1.3-9.2-4.3-11.4-7.9-.8-1.2-5.2-6.3-9.9-11.4-12.5-13.6-15.3-18.2-16.6-27.4-.3-2.6-1.3-5.5-2.3-6.5-.9-.9-5.4-2.9-10.1-4.5-4.7-1.5-9.2-3.2-10.1-3.6-2.1-1.1-3.7-7.4-4.3-17.4-1.7-26.9-9.4-35.9-35.6-41.5-11.6-2.5-16.2-2.9-32.6-3.1-20.4-.2-25-2-31-12.4-3.8-6.6-11.6-14.3-18.5-18.3-5.9-3.4-23.5-9.5-30.6-10.7-5.2-.8-6.8-2.7-8.6-9.5-1.5-5.8-1.4-12.2.3-20.5 3.3-16.2 3.4-16.5 2.2-22.5-1.3-7.3-6.2-15.1-11.2-17.9-4.6-2.5-23.3-6-37-6.7-7.5-.5-13.8-.1-22 1.1-6.9 1-13.7 1.4-17.1 1.1-5.5-.6-8.2-1.3-29.9-7.1-17.3-4.7-23.1-3.4-30.5 6.9-9 12.3-14.8 11.5-22.6-3.4-4.7-9.1-9.1-13-15.4-13.7-2.3-.3-12.5.2-22.6 1.1-31.1 2.9-34.3 3.1-56.4 4.1-23.4 1-32.5 2-48.5 5-25.2 4.7-26.5 4.9-50 5-23.2.1-23.7.2-36 3.4-15.1 4-26.3 4.4-43.3 1.6-1.2-.2-5.6-.6-9.7-1-4.1-.3-8.4-.7-9.5-1-1.1-.2-2.9-.4-4.1-.4-1.9-.1-2-.5-1.3-6.4.4-3.4 1.5-9.1 2.4-12.7 2.5-10 3.4-15.3 4-23.7.3-4.3 1-9.6 1.5-11.8 1.7-7.1 4.3-22.6 5.5-32.5.4-3 .8-6.6 1-8 .2-1.4.6-5.9 1-10 .3-4.1.8-9.3 1-11.5.2-2.2.6-7.4 1-11.5 1.8-22.7 1.9-22.8 5-35.8 1.5-5.9 3.5-12.1 4.6-13.9 1.8-2.9 8.9-7.3 11.7-7.3.7 0 1.2-.4 1.2-1 0-.5 1.4-3.1 3-5.7 3.7-5.7 3.8-9.8.6-16.1-6.9-13.3-7.5-16.1-7.3-29.8.2-11.3-.1-13.5-2-17.9-1.3-3-2.6-9.2-3.3-15.5-1.1-9.9-2-14-5.6-25.2-.8-2.6-1.7-7.3-1.9-10.4-.5-5.6-2.7-10.6-6.8-15.2-1.3-1.4-2.3-4.4-2.8-8-.3-3.1-2.1-8.7-3.8-12.4-1.8-3.7-3.4-7.7-3.6-9-.3-1.3-1.8-4.1-3.5-6.3-1.6-2.2-4.2-6-5.8-8.4-1.5-2.4-6.2-8.9-10.4-14.6-7.7-10.3-11.8-17-11.8-19.2 0-.6 2.1-5.4 4.6-10.5 4.7-9.6 5-11.8 2.9-20.2-.5-1.6-.3-3.1.2-3.5 1.7-1.1 6.1-9.4 8.8-16.5 3.6-9.6 5.2-17.9 5.4-28.7.1-5.5.7-9.9 1.4-10.8.7-.7 1.9-3.2 2.8-5.5 1.3-3.2 2.8-4.7 7-7.1 3.2-1.8 6.2-4.5 7.4-6.5 1.1-1.9 3.9-5.5 6.3-8 2.3-2.5 5.7-7.4 7.5-11 2.7-5.6 3.2-7.5 3.2-14 0-5.9-.5-8.5-2.4-12.3-2.6-5.4-10.3-14.2-15.5-17.8-2.4-1.6-3.7-3.4-4.1-5.9-.8-4.4-5.4-13-10.3-19.5-5.9-7.7-7.9-15.8-4.9-19.5 1.1-1.4 14.2-10 15.2-10 .2 0 8.9-4.9 19.4-10.9 12.7-7.3 22.3-12.1 28.8-14.3 5.4-1.8 12.2-4.8 15.1-6.5 3-1.8 6.3-3.3 7.3-3.3 4.2 0 9.5-3.1 12.3-7.3 1.6-2.4 5.6-6.2 8.8-8.6 3.3-2.4 7.8-6.9 10.1-10 2.3-3 6.9-8 10.1-11.1 6.2-5.8 11.6-13.3 11.6-16 0-1 .9-2.8 2.1-4.1 12-13.6 16.9-23.5 17.7-35.4.4-7.4.1-9.5-2.6-18.2-1.6-5.4-4.7-15.4-6.7-22.3-4.4-15.2-5.1-17-6.8-17-.7 0-2.1 1.3-3 3-1.8 2.9-4.5 3.8-8 2.4-1.2-.4-1.3-1.1-.4-3.5 1-2.4.8-3.2-.7-4.6-1.7-1.7-1.9-1.6-5.6 2.4-4.4 5-6.1 10.6-5.9 20.1 0 3.7-.4 8-1.1 9.7-.7 1.7-1.4 10.1-1.7 19l-.6 16-8.1 8.1c-8 8-12.9 11.4-16.3 11.4-2.1 0-12.5 5.3-17 8.7-4 3.1-6.6 2.4-9.7-2.5-1.3-2-3.3-4.7-4.4-6-3.1-3.5-2-7.9 3-12.1 4.9-4.2 7-8.7 6.1-13.3-.7-3.7-4.5-10.3-6.7-11.5-4.4-2.5-17.6-15.8-18.6-18.7-1.6-5 .2-12.2 3.8-14.7 3-2.3 11-12.6 13.6-17.7 6.7-13.3 5.4-27.2-3.9-42.7-5.7-9.3-8.5-15.4-9-19-.2-1.7-.7-5.3-1-8-2.5-19.6-14.6-36.2-31.5-43.2-3-1.2-6.4-2.3-7.5-2.3-1.1 0-3.3-.7-4.9-1.5-2.3-1.2-8.6-1.5-36.8-1.5h-33.9l-1.6 2.8zm-1717 1404.4c2.1 2.1 5.8 9 4.5 8.2-1.9-1.1-15.8-11.6-15.8-11.9 0-.7 10.3 2.6 11.3 3.7zm14.7 11.7c0 .5-1.2.7-2.7.5-3.9-.7-4.2-1.4-.5-1.4 1.8 0 3.2.4 3.2.9zM4503.7 3294c4.3 2.2 8.4 4 9.1 4 .7 0 1.2 1.3 1.2 3.1 0 3.1 0 3.1-2.5 1.5-1.4-.9-3.7-2.4-5.2-3.3-3.9-2.4-19.3-14.3-19.3-14.9 0-.3 2 .9 4.4 2.5 2.4 1.7 7.9 4.9 12.3 7.1z"/></svg>